<svg 
 xmlns="http://www.w3.org/2000/svg"
 xmlns:xlink="http://www.w3.org/1999/xlink"
 width="499px" height="270px">
<defs>
<filter filterUnits="userSpaceOnUse" id="Filter_0" x="0px" y="0px" width="499px" height="270px"  >
    <feOffset in="SourceAlpha" dx="0" dy="0" />
    <feGaussianBlur result="blurOut" stdDeviation="3.162" />
    <feFlood flood-color="rgb(0, 0, 0)" result="floodOut" />
    <feComposite operator="atop" in="floodOut" in2="blurOut" />
    <feComponentTransfer><feFuncA type="linear" slope="0.1"/></feComponentTransfer>
    <feMerge>
    <feMergeNode/>
    <feMergeNode in="SourceGraphic"/>
  </feMerge>
</filter>
<filter filterUnits="userSpaceOnUse" id="Filter_1" x="37px" y="149px" width="45px" height="120px"  >
    <feOffset in="SourceAlpha" dx="0" dy="0" />
    <feGaussianBlur result="blurOut" stdDeviation="3.162" />
    <feFlood flood-color="rgb(128, 149, 254)" result="floodOut" />
    <feComposite operator="atop" in="floodOut" in2="blurOut" />
    <feComponentTransfer><feFuncA type="linear" slope="0.3"/></feComponentTransfer>
    <feMerge>
    <feMergeNode/>
    <feMergeNode in="SourceGraphic"/>
  </feMerge>
</filter>
<filter filterUnits="userSpaceOnUse" id="Filter_2" x="93px" y="189px" width="45px" height="80px"  >
    <feOffset in="SourceAlpha" dx="0" dy="0" />
    <feGaussianBlur result="blurOut" stdDeviation="3.162" />
    <feFlood flood-color="rgb(255, 173, 95)" result="floodOut" />
    <feComposite operator="atop" in="floodOut" in2="blurOut" />
    <feComponentTransfer><feFuncA type="linear" slope="0.3"/></feComponentTransfer>
    <feMerge>
    <feMergeNode/>
    <feMergeNode in="SourceGraphic"/>
  </feMerge>
</filter>
<filter filterUnits="userSpaceOnUse" id="Filter_3" x="65px" y="72px" width="45px" height="197px"  >
    <feOffset in="SourceAlpha" dx="0" dy="0" />
    <feGaussianBlur result="blurOut" stdDeviation="3.162" />
    <feFlood flood-color="rgb(164, 155, 255)" result="floodOut" />
    <feComposite operator="atop" in="floodOut" in2="blurOut" />
    <feComponentTransfer><feFuncA type="linear" slope="0.2"/></feComponentTransfer>
    <feMerge>
    <feMergeNode/>
    <feMergeNode in="SourceGraphic"/>
  </feMerge>
</filter>
<filter filterUnits="userSpaceOnUse" id="Filter_4" x="150px" y="21px" width="45px" height="249px"  >
    <feOffset in="SourceAlpha" dx="0" dy="0" />
    <feGaussianBlur result="blurOut" stdDeviation="3.162" />
    <feFlood flood-color="rgb(128, 149, 254)" result="floodOut" />
    <feComposite operator="atop" in="floodOut" in2="blurOut" />
    <feComponentTransfer><feFuncA type="linear" slope="0.3"/></feComponentTransfer>
    <feMerge>
    <feMergeNode/>
    <feMergeNode in="SourceGraphic"/>
  </feMerge>
</filter>
<filter filterUnits="userSpaceOnUse" id="Filter_5" x="206px" y="220px" width="45px" height="50px"  >
    <feOffset in="SourceAlpha" dx="0" dy="0" />
    <feGaussianBlur result="blurOut" stdDeviation="3.162" />
    <feFlood flood-color="rgb(255, 173, 95)" result="floodOut" />
    <feComposite operator="atop" in="floodOut" in2="blurOut" />
    <feComponentTransfer><feFuncA type="linear" slope="0.3"/></feComponentTransfer>
    <feMerge>
    <feMergeNode/>
    <feMergeNode in="SourceGraphic"/>
  </feMerge>
</filter>
<filter filterUnits="userSpaceOnUse" id="Filter_6" x="178px" y="161px" width="45px" height="108px"  >
    <feOffset in="SourceAlpha" dx="0" dy="0" />
    <feGaussianBlur result="blurOut" stdDeviation="3.162" />
    <feFlood flood-color="rgb(164, 155, 255)" result="floodOut" />
    <feComposite operator="atop" in="floodOut" in2="blurOut" />
    <feComponentTransfer><feFuncA type="linear" slope="0.2"/></feComponentTransfer>
    <feMerge>
    <feMergeNode/>
    <feMergeNode in="SourceGraphic"/>
  </feMerge>
</filter>
<filter filterUnits="userSpaceOnUse" id="Filter_7" x="260px" y="126px" width="45px" height="144px"  >
    <feOffset in="SourceAlpha" dx="0" dy="0" />
    <feGaussianBlur result="blurOut" stdDeviation="3.162" />
    <feFlood flood-color="rgb(128, 149, 254)" result="floodOut" />
    <feComposite operator="atop" in="floodOut" in2="blurOut" />
    <feComponentTransfer><feFuncA type="linear" slope="0.3"/></feComponentTransfer>
    <feMerge>
    <feMergeNode/>
    <feMergeNode in="SourceGraphic"/>
  </feMerge>
</filter>
<filter filterUnits="userSpaceOnUse" id="Filter_8" x="316px" y="206px" width="45px" height="64px"  >
    <feOffset in="SourceAlpha" dx="0" dy="0" />
    <feGaussianBlur result="blurOut" stdDeviation="3.162" />
    <feFlood flood-color="rgb(255, 173, 95)" result="floodOut" />
    <feComposite operator="atop" in="floodOut" in2="blurOut" />
    <feComponentTransfer><feFuncA type="linear" slope="0.3"/></feComponentTransfer>
    <feMerge>
    <feMergeNode/>
    <feMergeNode in="SourceGraphic"/>
  </feMerge>
</filter>
<filter filterUnits="userSpaceOnUse" id="Filter_9" x="288px" y="167px" width="45px" height="103px"  >
    <feOffset in="SourceAlpha" dx="0" dy="0" />
    <feGaussianBlur result="blurOut" stdDeviation="3.162" />
    <feFlood flood-color="rgb(164, 155, 255)" result="floodOut" />
    <feComposite operator="atop" in="floodOut" in2="blurOut" />
    <feComponentTransfer><feFuncA type="linear" slope="0.2"/></feComponentTransfer>
    <feMerge>
    <feMergeNode/>
    <feMergeNode in="SourceGraphic"/>
  </feMerge>
</filter>
<filter filterUnits="userSpaceOnUse" id="Filter_10" x="366px" y="161px" width="45px" height="108px"  >
    <feOffset in="SourceAlpha" dx="0" dy="0" />
    <feGaussianBlur result="blurOut" stdDeviation="3.162" />
    <feFlood flood-color="rgb(128, 149, 254)" result="floodOut" />
    <feComposite operator="atop" in="floodOut" in2="blurOut" />
    <feComponentTransfer><feFuncA type="linear" slope="0.3"/></feComponentTransfer>
    <feMerge>
    <feMergeNode/>
    <feMergeNode in="SourceGraphic"/>
  </feMerge>
</filter>
<filter filterUnits="userSpaceOnUse" id="Filter_11" x="422px" y="220px" width="45px" height="49px"  >
    <feOffset in="SourceAlpha" dx="0" dy="0" />
    <feGaussianBlur result="blurOut" stdDeviation="3.162" />
    <feFlood flood-color="rgb(255, 173, 95)" result="floodOut" />
    <feComposite operator="atop" in="floodOut" in2="blurOut" />
    <feComponentTransfer><feFuncA type="linear" slope="0.3"/></feComponentTransfer>
    <feMerge>
    <feMergeNode/>
    <feMergeNode in="SourceGraphic"/>
  </feMerge>
</filter>
<filter filterUnits="userSpaceOnUse" id="Filter_12" x="394px" y="89px" width="45px" height="181px"  >
    <feOffset in="SourceAlpha" dx="0" dy="0" />
    <feGaussianBlur result="blurOut" stdDeviation="3.162" />
    <feFlood flood-color="rgb(164, 155, 255)" result="floodOut" />
    <feComposite operator="atop" in="floodOut" in2="blurOut" />
    <feComponentTransfer><feFuncA type="linear" slope="0.2"/></feComponentTransfer>
    <feMerge>
    <feMergeNode/>
    <feMergeNode in="SourceGraphic"/>
  </feMerge>
</filter>

</defs>
<g filter="url(#Filter_0)">
<path fill-rule="evenodd"  fill="rgb(255, 255, 255)"
 d="M19.000,9.000 L479.000,9.000 C484.523,9.000 489.000,13.477 489.000,19.000 L489.000,250.000 C489.000,255.523 484.523,260.000 479.000,260.000 L19.000,260.000 C13.477,260.000 9.000,255.523 9.000,250.000 L9.000,19.000 C9.000,13.477 13.477,9.000 19.000,9.000 Z"/>
</g>
<path fill-rule="evenodd"  opacity="0.502" fill="rgb(238, 238, 238)"
 d="M44.000,185.000 L44.000,184.000 L460.000,184.000 L460.000,185.000 L44.000,185.000 Z"/>
<path fill-rule="evenodd"  opacity="0.502" fill="rgb(238, 238, 238)"
 d="M44.000,225.000 L44.000,224.000 L460.000,224.000 L460.000,225.000 L44.000,225.000 Z"/>
<path fill-rule="evenodd"  opacity="0.502" fill="rgb(238, 238, 238)"
 d="M44.000,145.000 L44.000,144.000 L460.000,144.000 L460.000,145.000 L44.000,145.000 Z"/>
<path fill-rule="evenodd"  opacity="0.502" fill="rgb(238, 238, 238)"
 d="M44.000,105.000 L44.000,104.000 L460.000,104.000 L460.000,105.000 L44.000,105.000 Z"/>
<path fill-rule="evenodd"  opacity="0.502" fill="rgb(238, 238, 238)"
 d="M44.000,65.000 L44.000,64.000 L460.000,64.000 L460.000,65.000 L44.000,65.000 Z"/>
<g filter="url(#Filter_1)">
<path fill-rule="evenodd"  fill="rgb(128, 149, 254)"
 d="M46.000,158.000 L72.000,158.000 L72.000,259.000 L46.000,259.000 L46.000,158.000 Z"/>
</g>
<g filter="url(#Filter_2)">
<path fill-rule="evenodd"  fill="rgb(255, 173, 95)"
 d="M102.000,198.000 L128.000,198.000 L128.000,259.000 L102.000,259.000 L102.000,198.000 Z"/>
</g>
<g filter="url(#Filter_3)">
<path fill-rule="evenodd"  fill="rgb(164, 155, 255)"
 d="M74.000,81.000 L100.000,81.000 L100.000,259.000 L74.000,259.000 L74.000,81.000 Z"/>
</g>
<g filter="url(#Filter_4)">
<path fill-rule="evenodd"  fill="rgb(128, 149, 254)"
 d="M159.000,30.000 L185.000,30.000 L185.000,260.000 L159.000,260.000 L159.000,30.000 Z"/>
</g>
<g filter="url(#Filter_5)">
<path fill-rule="evenodd"  fill="rgb(255, 173, 95)"
 d="M215.000,229.000 L241.000,229.000 L241.000,260.000 L215.000,260.000 L215.000,229.000 Z"/>
</g>
<g filter="url(#Filter_6)">
<path fill-rule="evenodd"  fill="rgb(164, 155, 255)"
 d="M187.000,170.000 L213.000,170.000 L213.000,259.000 L187.000,259.000 L187.000,170.000 Z"/>
</g>
<g filter="url(#Filter_7)">
<path fill-rule="evenodd"  fill="rgb(128, 149, 254)"
 d="M269.000,135.000 L295.000,135.000 L295.000,260.000 L269.000,260.000 L269.000,135.000 Z"/>
</g>
<g filter="url(#Filter_8)">
<path fill-rule="evenodd"  fill="rgb(255, 173, 95)"
 d="M325.000,215.000 L351.000,215.000 L351.000,260.000 L325.000,260.000 L325.000,215.000 Z"/>
</g>
<g filter="url(#Filter_9)">
<path fill-rule="evenodd"  fill="rgb(164, 155, 255)"
 d="M297.000,176.000 L323.000,176.000 L323.000,260.000 L297.000,260.000 L297.000,176.000 Z"/>
</g>
<g filter="url(#Filter_10)">
<path fill-rule="evenodd"  fill="rgb(128, 149, 254)"
 d="M375.000,170.000 L401.000,170.000 L401.000,259.000 L375.000,259.000 L375.000,170.000 Z"/>
</g>
<g filter="url(#Filter_11)">
<path fill-rule="evenodd"  fill="rgb(255, 173, 95)"
 d="M431.000,229.000 L457.000,229.000 L457.000,259.000 L431.000,259.000 L431.000,229.000 Z"/>
</g>
<g filter="url(#Filter_12)">
<path fill-rule="evenodd"  fill="rgb(164, 155, 255)"
 d="M403.000,98.000 L429.000,98.000 L429.000,260.000 L403.000,260.000 L403.000,98.000 Z"/>
</g>
</svg>