<svg xmlns="http://www.w3.org/2000/svg" class="icon" viewBox="0 0 256 256"  width="96" height="96"><g filter="url(#jdy-biz-634)"><path d="m22.726 186.296 44.221-27.924a30.003 30.003 0 0 1 16.018-4.634l83.372.001c8.967 0 17.427-4.027 23.696-10.44 8.779-8.98 22.713-21.736 37.911-29.873 10.6-5.675 17.758 5.583 11.024 15.545l-38.659 57.192a29.998 29.998 0 0 1-22.3 13.09l-65.237 5.576a29.994 29.994 0 0 0-15.748 6.12L62.74 237.346c-6.306 4.855-15.306 3.94-20.506-2.085L19.379 208.78c-5.992-6.942-4.407-17.588 3.347-22.484Z" fill="url(#jdy-biz-636)"></path><path fill-rule="evenodd" clip-rule="evenodd" d="M134.774 22.01C150.985 22.42 164 35.69 164 52v8h11c6.627 0 12 5.373 12 12v55c0 6.627-5.373 12-12 12H81c-6.627 0-12-5.373-12-12V72c0-6.627 5.373-12 12-12h11v-8c0-16.31 13.015-29.58 29.226-29.99L122 22h12l.774.01ZM122 40c-6.627 0-12 5.373-12 12v8h36v-8c0-6.627-5.373-12-12-12h-12Z" fill="url(#jdy-biz-635)"></path></g><defs><linearGradient id="jdy-biz-636" x1="129" y1="228.725" x2="139.91" y2="40.12" gradientUnits="userSpaceOnUse"><stop stop-color="#fff" stop-opacity="0.85"></stop><stop offset="1" stop-color="#fff" stop-opacity="0.6"></stop></linearGradient><linearGradient id="jdy-biz-635" x1="113.497" y1="74.785" x2="95.436" y2="184.014" gradientUnits="userSpaceOnUse"><stop stop-color="#fff"></stop><stop offset="1" stop-color="#fff" stop-opacity="0.8"></stop></linearGradient><filter id="jdy-biz-634" x="7.934" y="19.685" width="241.456" height="234.06" filterUnits="userSpaceOnUse" color-interpolation-filters="sRGB"><feFlood flood-opacity="0" result="BackgroundImageFix"></feFlood><feColorMatrix in="SourceAlpha" values="0 0 0 0 0 0 0 0 0 0 0 0 0 0 0 0 0 0 127 0" result="hardAlpha"></feColorMatrix><feOffset dy="5.484"></feOffset><feGaussianBlur stdDeviation="3.9"></feGaussianBlur><feComposite in2="hardAlpha" operator="out"></feComposite><feColorMatrix values="0 0 0 0 0 0 0 0 0 0 0 0 0 0 0 0 0 0 0.06 0"></feColorMatrix><feBlend in2="BackgroundImageFix" result="effect1_dropShadow_32136_178210"></feBlend><feBlend in="SourceGraphic" in2="effect1_dropShadow_32136_178210" result="shape"></feBlend></filter></defs></svg>