<svg xmlns="http://www.w3.org/2000/svg" class="icon" viewBox="0 0 256 256"  width="96" height="96"><g filter="url(#jdy-biz-743)"><path fill-rule="evenodd" clip-rule="evenodd" d="M198 35c13.255 0 24 10.745 24 24v153c0 13.255-10.745 24-24 24H58c-13.255 0-24-10.745-24-24V59c0-13.255 10.745-24 24-24h22.848v10c0 6.627 5.372 12 12 12h70c6.627 0 12-5.373 12-12V35H198Zm-16.369 72.811c-3.905-3.906-10.237-3.906-14.142 0l-45.608 45.608-24.81-24.811c-3.906-3.905-10.237-3.905-14.142 0-3.906 3.906-3.906 10.238 0 14.143l29.759 29.76c5.077 5.077 13.308 5.077 18.385 0l50.558-50.559c3.905-3.905 3.905-10.236 0-14.141Z" fill="url(#jdy-biz-745)"></path><rect x="80.848" y="20" width="94" height="37" rx="12" fill="url(#jdy-biz-744)"></rect></g><defs><linearGradient id="jdy-biz-745" x1="104.894" y1="72.617" x2="152.629" y2="285.811" gradientUnits="userSpaceOnUse"><stop stop-color="#fff"></stop><stop offset="1" stop-color="#fff" stop-opacity="0.8"></stop></linearGradient><linearGradient id="jdy-biz-744" x1="88.5" y1="15" x2="113.5" y2="110.5" gradientUnits="userSpaceOnUse"><stop stop-color="#fff" stop-opacity="0.85"></stop><stop offset="1" stop-color="#fff" stop-opacity="0.4"></stop></linearGradient><filter id="jdy-biz-743" x="26.201" y="17.685" width="203.599" height="231.599" filterUnits="userSpaceOnUse" color-interpolation-filters="sRGB"><feFlood flood-opacity="0" result="BackgroundImageFix"></feFlood><feColorMatrix in="SourceAlpha" values="0 0 0 0 0 0 0 0 0 0 0 0 0 0 0 0 0 0 127 0" result="hardAlpha"></feColorMatrix><feOffset dy="5.484"></feOffset><feGaussianBlur stdDeviation="3.9"></feGaussianBlur><feComposite in2="hardAlpha" operator="out"></feComposite><feColorMatrix values="0 0 0 0 0 0 0 0 0 0 0 0 0 0 0 0 0 0 0.06 0"></feColorMatrix><feBlend in2="BackgroundImageFix" result="effect1_dropShadow_32136_178739"></feBlend><feBlend in="SourceGraphic" in2="effect1_dropShadow_32136_178739" result="shape"></feBlend></filter></defs></svg>