<svg xmlns="http://www.w3.org/2000/svg" class="icon" viewBox="0 0 256 256"  width="96" height="96"><g filter="url(#jyy-biz-661)"><circle cx="101" cy="207" r="24" transform="rotate(-180 101 207)"></circle><circle cx="181" cy="207" r="24" transform="rotate(-180 181 207)"></circle><path d="M130.226 35.419a12 12 0 0 1 14.417-.005l63.652 47.79C214.611 87.948 211.257 98 203.359 98H71.612c-7.895 0-11.251-10.047-4.94-14.792l63.554-47.79Z"></path><path d="M32.987 35c8.016 0 14.869 5.74 16.239 13.6l5.142 29.5h168.148c10.082 0 17.8 8.93 16.296 18.852L225.3 186.044c-1.217 8.023-8.145 13.956-16.297 13.956H70.975c-8.153 0-15.08-5.933-16.297-13.956l-11.906-78.506-9.785-56.135H21.24c-4.55 0-8.24-3.672-8.24-8.202C13 38.671 16.69 35 21.24 35h11.747Z"></path></g><defs><filter id="jyy-biz-661" x="5.201" y="30.694" width="241.598" height="213.589" filterUnits="userSpaceOnUse" color-interpolation-filters="sRGB"><feFlood flood-opacity="0" result="BackgroundImageFix"></feFlood><feColorMatrix in="SourceAlpha" values="0 0 0 0 0 0 0 0 0 0 0 0 0 0 0 0 0 0 127 0" result="hardAlpha"></feColorMatrix><feOffset dy="5.484"></feOffset><feGaussianBlur stdDeviation="3.9"></feGaussianBlur><feComposite in2="hardAlpha" operator="out"></feComposite><feColorMatrix values="0 0 0 0 0 0 0 0 0 0 0 0 0 0 0 0 0 0 0.06 0"></feColorMatrix><feBlend in2="BackgroundImageFix" result="effect1_dropShadow_32136_178216"></feBlend><feBlend in="SourceGraphic" in2="effect1_dropShadow_32136_178216" result="shape"></feBlend></filter></defs></svg>