<svg xmlns="http://www.w3.org/2000/svg" class="icon" viewBox="0 0 256 256"  width="96" height="96"><g filter="url(#jyy-biz-755)"><path d="M120.654 111.139c3.768 0 5.888.717 6.963 1.552.857.71 1.613 2.035 1.613 4.49 0 2.207-.691 3.541-1.727 4.45-1.316 1.03-3.509 1.801-6.849 1.801h-12.843v-12.293h12.843Z"></path><path fill-rule="evenodd" clip-rule="evenodd" d="M128 18c60.751 0 110 49.249 110 110s-49.249 110-110 110S17.999 188.751 17.999 128 67.249 18 128 18ZM61.523 99c-5.985 0-11.247 1.204-15.46 3.865-4.913 2.954-7.406 7.359-7.406 12.71 0 5.354 2.71 9.557 7.793 12.315l.067.036.067.032c2.041.993 6.455 2.465 12.853 4.269l.044.011c2.975.798 5.367 1.479 7.181 2.057 1.894.603 2.917 1.02 3.331 1.252l.074.041.076.037c2.696 1.337 3.55 2.851 3.55 4.591 0 1.436-.614 2.588-2.45 3.635-2.004 1.142-4.933 1.848-8.895 1.848-4.343 0-7.102-.888-8.783-2.116-1.801-1.36-3.174-3.699-3.632-7.484l-.334-2.755H37l.242 3.313c.497 6.8 3.13 12.261 8.256 15.932l.03.021c4.36 3.049 10.092 4.39 16.82 4.39 6.809 0 12.56-1.343 17.03-4.26l.036-.024c4.635-3.112 6.998-7.55 6.998-12.849 0-5.726-2.952-10.171-8.257-13.189l-.021-.012c-2.66-1.488-7.699-3.189-14.687-5.13l-.023-.006c-5.28-1.427-8.169-2.382-9.118-2.874l-.043-.021c-2.328-1.165-2.813-2.288-2.813-3.339 0-1.799.682-2.858 2.178-3.679l.025-.013c1.497-.838 3.862-1.374 7.572-1.374 3.94 0 6.436.768 8.007 1.958l.01.008c1.52 1.143 2.723 3.023 3.302 6.142l.478 2.573H85.54l-.339-3.39c-.584-5.841-2.901-10.696-7.377-14.004-4.23-3.169-9.857-4.517-16.3-4.517Zm33.495.978v56.044h12.793v-21.429h12.843c3.059 0 4.753.521 5.715 1.194l.05.035.053.034c.869.562 1.707 1.718 1.95 4.095l.671 6.601c.259 3.169 1.133 5.873 2.718 8.09l.987 1.38h15.408l-4.376-5.051c-1.061-1.225-1.863-3.038-2.119-5.661l-.826-7.706-.004-.035c-.356-2.982-1.415-5.637-3.391-7.734-.358-.38-.738-.733-1.138-1.061a14.826 14.826 0 0 0 2.612-2.542l.051-.066c2.062-2.71 3.084-5.787 3.084-9.195 0-5.357-1.958-9.812-6.026-12.882l-.007-.006c-3.85-2.89-8.875-4.105-14.663-4.105H95.018Zm58.078 0v56.044h12.793v-28.318l13.208 28.318h9.902l13.207-28.318v28.318H215V99.978h-13.145l-17.775 38.089-17.844-38.09h-13.14Z"></path></g><defs><filter id="jyy-biz-755" x="10.2" y="15.685" width="235.6" height="235.599" filterUnits="userSpaceOnUse" color-interpolation-filters="sRGB"><feFlood flood-opacity="0" result="BackgroundImageFix"></feFlood><feColorMatrix in="SourceAlpha" values="0 0 0 0 0 0 0 0 0 0 0 0 0 0 0 0 0 0 127 0" result="hardAlpha"></feColorMatrix><feOffset dy="5.484"></feOffset><feGaussianBlur stdDeviation="3.9"></feGaussianBlur><feComposite in2="hardAlpha" operator="out"></feComposite><feColorMatrix values="0 0 0 0 0 0 0 0 0 0 0 0 0 0 0 0 0 0 0.06 0"></feColorMatrix><feBlend in2="BackgroundImageFix" result="effect1_dropShadow_32136_178743"></feBlend><feBlend in="SourceGraphic" in2="effect1_dropShadow_32136_178743" result="shape"></feBlend></filter></defs></svg>