<svg xmlns="http://www.w3.org/2000/svg" xmlns:xlink="http://www.w3.org/1999/xlink" fill="none" version="1.1" width="24" height="24" viewBox="0 0 24 24"><defs><clipPath id="master_svg0_824_914"><rect x="0" y="0" width="24" height="24" rx="0"/></clipPath></defs><g clip-path="url(#master_svg0_824_914)"><g><g><path d="M22.885546875,22.022074577331544L1.171545875,22.022074577331544C0.8341008750000001,22.022074577331544,0.560546875,21.748520577331544,0.560546875,21.411076577331542C0.560546875,21.073630577331542,0.8340998749999999,20.800076484681544,1.171545875,20.800074577331543L22.885546875,20.800074577331543C23.222946875,20.800076484681544,23.496546875,21.073630577331542,23.496546875,21.411076577331542C23.496546875,21.748520577331544,23.222946875,22.022074577331544,22.885546875,22.022074577331544Z" fill="#6A83FC" fill-opacity="0.699999988079071"/></g><g><path d="M17.84596875,11.298637077331543Q17.84596875,11.414277077331544,17.84028875,11.529777077331543Q17.83461875,11.645277077331542,17.82326875,11.760357077331543Q17.81192875,11.875437077331544,17.79494875,11.989827077331544Q17.77796875,12.104207077331543,17.75538875,12.217627077331542Q17.73281875,12.331047077331544,17.70469875,12.443217077331543Q17.676578749999997,12.555387077331542,17.64298875,12.666047077331543Q17.60938875,12.776707077331544,17.57040875,12.885587077331543Q17.53141875,12.994467077331542,17.48713875,13.101307077331544Q17.44284875,13.208147077331542,17.39337875,13.312677077331543Q17.34389875,13.417217077331543,17.289348750000002,13.519197077331544Q17.23479875,13.621187077331543,17.17529875,13.720367077331543Q17.11580875,13.819557077331542,17.05151875,13.915707077331543Q16.98721875,14.011857077331543,16.918288750000002,14.104737077331542Q16.84935875,14.197617077331543,16.77593875,14.287007077331543Q16.70252875,14.376397077331543,16.62480875,14.462087077331542Q16.54709875,14.547767077331542,16.46526875,14.629537077331543Q16.38343875,14.711307077331544,16.297698750000002,14.788967077331543Q16.21194875,14.866617077331544,16.12249875,14.939977077331543Q16.03304875,15.013337077331544,15.94009875,15.082227077331543Q15.847148749999999,15.151117077331543,15.75092875,15.215357077331543Q15.654708750000001,15.279607077331542,15.55544875,15.339057077331542Q15.456188749999999,15.398507077331542,15.354128750000001,15.453017077331543Q15.252078749999999,15.507527077331543,15.14745875,15.556967077331542Q15.042848750000001,15.606417077331542,14.93593875,15.650667077331542Q14.829028749999999,15.694917077331542,14.72006875,15.733877077331544Q14.61110875,15.772837077331543,14.50036875,15.806407077331542Q14.38962875,15.839967077331544,14.27737875,15.868067077331544Q14.165118750000001,15.896167077331542,14.051628749999999,15.918727077331543Q13.93812875,15.941287077331543,13.82365875,15.958257077331544Q13.70918875,15.975217077331543,13.59401875,15.986557077331543Q13.47885875,15.997887077331542,13.36327875,16.003567077331542Q13.24768875,16.00923707733154,13.13196875,16.00923707733154Q13.016248749999999,16.00923707733154,12.900668750000001,16.003567077331542Q12.78507875,15.997887077331542,12.66991875,15.986557077331543Q12.55474875,15.975217077331543,12.440278750000001,15.958257077331544Q12.32580875,15.941287077331543,12.21230875,15.918727077331543Q12.09881875,15.896167077331542,11.98655875,15.868067077331544Q11.87430875,15.839967077331544,11.763568750000001,15.806397077331543Q11.65282875,15.772837077331543,11.54386875,15.733877077331544Q11.43490875,15.694917077331542,11.327998749999999,15.650667077331542Q11.22108875,15.606407077331543,11.11647875,15.556967077331542Q11.01185875,15.507527077331543,10.90980875,15.453017077331543Q10.80774875,15.398507077331542,10.70848875,15.339057077331542Q10.60922875,15.279607077331542,10.513008750000001,15.215357077331543Q10.41678875,15.151117077331543,10.32383875,15.082227077331543Q10.23088875,15.013337077331544,10.14143875,14.939977077331543Q10.05198875,14.866617077331544,9.96623875,14.788967077331543Q9.880498750000001,14.711307077331544,9.798668750000001,14.629537077331543Q9.71683875,14.547767077331542,9.63912875,14.462087077331542Q9.56140875,14.376397077331543,9.48799875,14.287007077331543Q9.41458375,14.197617077331543,9.34564875,14.104737077331542Q9.27671275,14.011857077331543,9.21242075,13.915707077331543Q9.14812875,13.819557077331542,9.08863575,13.720367077331543Q9.02914275,13.621187077331543,8.97459175,13.519197077331544Q8.92004075,13.417217077331543,8.87056275,13.312677077331543Q8.82108575,13.208147077331542,8.77680075,13.101307077331544Q8.73251575,12.994467077331542,8.69352975,12.885587077331543Q8.65454475,12.776707077331544,8.62095175,12.666057077331544Q8.58735975,12.555397077331543,8.55924175,12.443217077331543Q8.53112275,12.331047077331544,8.50854695,12.217627077331542Q8.48597065,12.104207077331543,8.46899065,11.989827077331544Q8.45201075,11.875437077331544,8.44066795,11.760357077331543Q8.42932515,11.645277077331542,8.42364697,11.529777077331543Q8.41796875,11.414277077331544,8.41796875,11.298637077331543Q8.41796875,11.182997077331542,8.42364697,11.067497077331543Q8.42932515,10.951997077331544,8.44066795,10.836917077331542Q8.45201075,10.721837077331543,8.46899065,10.607447077331543Q8.48597065,10.493057077331542,8.50854695,10.379647077331542Q8.53112275,10.266227077331543,8.55924175,10.154057077331544Q8.58735975,10.041877077331543,8.62095175,9.931217077331542Q8.65454475,9.820557077331543,8.69352975,9.711677077331544Q8.73251575,9.602807077331542,8.77680075,9.495967077331542Q8.82108575,9.389127077331544,8.87056275,9.284597077331544Q8.92004075,9.180057077331544,8.97459175,9.078077077331542Q9.02914275,8.976087077331544,9.08863575,8.876897077331543Q9.14812875,8.777717077331543,9.21242075,8.681567077331543Q9.27671275,8.585417077331543,9.34564875,8.492537077331543Q9.41458375,8.399647077331544,9.48799875,8.310257077331542Q9.56140875,8.220867077331542,9.63912875,8.135187077331542Q9.71683875,8.049507077331542,9.798668750000001,7.9677370773315435Q9.880498750000001,7.885967077331543,9.96623875,7.808307077331543Q10.05198875,7.730647077331543,10.14143875,7.657287077331543Q10.23088875,7.583930077331543,10.32383875,7.5150440773315434Q10.41678875,7.446158077331543,10.513008750000001,7.381912077331543Q10.60922875,7.317667077331543,10.70848875,7.258217077331543Q10.80774875,7.198767077331543,10.90980875,7.144255077331543Q11.01185875,7.089743077331543,11.11647875,7.040301077331543Q11.22108875,6.990859077331543,11.327998749999999,6.946606077331543Q11.43490875,6.902353077331543,11.54386875,6.863395077331543Q11.65282875,6.824438077331543,11.763568750000001,6.790870077331543Q11.87430875,6.757301077331543,11.98655875,6.729204077331543Q12.09881875,6.701106077331543,12.21230875,6.678545677331543Q12.32580875,6.655985577331543,12.440278750000001,6.639017877331543Q12.55474875,6.622050177331543,12.66991875,6.610715577331543Q12.78507875,6.599380977331543,12.900668750000001,6.593706847331543Q13.016248749999999,6.588032727331543,13.13196875,6.588032727331543Q13.24768875,6.588032727331543,13.36327875,6.593706847331543Q13.47885875,6.599380977331543,13.59401875,6.610715577331543Q13.70918875,6.622050177331543,13.82365875,6.639017877331543Q13.93812875,6.655985577331543,14.051628749999999,6.678545677331543Q14.165118750000001,6.701106077331543,14.27737875,6.729204077331543Q14.38962875,6.757301077331543,14.50036875,6.790870077331543Q14.61110875,6.824438077331543,14.72006875,6.863395077331543Q14.829028749999999,6.902353077331543,14.93593875,6.946606077331543Q15.042848750000001,6.990859077331543,15.14745875,7.040301077331543Q15.252078749999999,7.089743077331543,15.354128750000001,7.144255077331543Q15.456188749999999,7.198767077331543,15.55544875,7.258217077331543Q15.654708750000001,7.317667077331543,15.75092875,7.381912077331543Q15.847148749999999,7.446158077331543,15.94009875,7.5150440773315434Q16.03304875,7.583930077331543,16.12249875,7.657287077331543Q16.21194875,7.730647077331543,16.297698750000002,7.808307077331543Q16.38343875,7.885967077331543,16.46526875,7.9677370773315435Q16.54709875,8.049507077331542,16.62480875,8.135187077331542Q16.70252875,8.220867077331542,16.77593875,8.310257077331542Q16.84935875,8.399647077331544,16.918288750000002,8.492537077331543Q16.98721875,8.585417077331543,17.05151875,8.681567077331543Q17.11580875,8.777717077331543,17.17529875,8.876897077331543Q17.23479875,8.976087077331544,17.289348750000002,9.078077077331542Q17.34389875,9.180057077331544,17.39337875,9.284597077331544Q17.44284875,9.389127077331544,17.48713875,9.495967077331542Q17.53141875,9.602807077331542,17.57040875,9.711677077331544Q17.60938875,9.820557077331543,17.64298875,9.931217077331542Q17.676578749999997,10.041877077331543,17.70469875,10.154057077331544Q17.73281875,10.266227077331543,17.75538875,10.379647077331542Q17.77796875,10.493057077331542,17.79494875,10.607447077331543Q17.81192875,10.721837077331543,17.82326875,10.836917077331542Q17.83461875,10.951997077331544,17.84028875,11.067497077331543Q17.84596875,11.182997077331542,17.84596875,11.298637077331543Z" fill="#6A83FC" fill-opacity="1"/></g><g><path d="M7.6328125,10.906000358581544C7.6317125,12.423840358581543,6.4006525,13.653600358581542,4.8828125,13.653000358581544C3.3649725,13.653600358581542,2.1339159,12.423840358581543,2.1328125,10.906000358581544C2.13391781,9.388160358581544,3.3649725,8.158450358581543,4.8828125,8.159000358581544C6.4018125,8.159000358581544,7.6328125,9.389000358581544,7.6328125,10.906000358581544ZM8.4178125,5.020000358581543C8.4172625,5.887090358581543,7.7139025,6.589550358581543,6.8468125,6.5890003585815435C5.979722499999999,6.588450358581543,5.2772625,5.885090358581543,5.2778125,5.018000358581543C5.2783625,4.150914358581543,5.9817225,3.448449134581543,6.8488125,3.449000358581543C7.7159025,3.449552535581543,8.4183625,4.152913358581543,8.4178125,5.020000358581543ZM19.4178125,5.020000358581543C19.4172125,5.887090358581543,18.7139125,6.589550358581543,17.8468125,6.5890003585815435C16.979712499999998,6.588450358581543,16.277212499999997,5.885090358581543,16.2778125,5.018000358581543C16.2784125,4.150914358581543,16.9817125,3.448449134581543,17.8488125,3.449000358581543C18.7159125,3.449552535581543,19.4183125,4.152913358581543,19.4178125,5.020000358581543Z" fill="#6A83FC" fill-opacity="0.699999988079071"/></g><g><path d="M5.2749453125,16.40003590545654C5.2746653125,17.050635905456545,4.7470353124999995,17.577835905456546,4.0964453125,17.577535905456543C3.4458543125,17.577335905456543,2.9186697005,17.049635905456544,2.9189453125,16.399035905456543C2.9192209245,15.748535905456542,3.4468523125,15.221335905456543,4.0974453125,15.221535905456543C4.7480353125,15.221835905456542,5.2752253125,15.749535905456543,5.2749453125,16.40003590545654ZM21.7759453125,9.729085905456543C21.7764453125,10.597485905456544,21.0723453125,11.301595905456544,20.2039453125,11.301045905456544C19.3355453125,11.300485905456544,18.6323453125,10.595485905456542,18.6339453125,9.727085905456544C18.6355453125,8.860205905456542,19.3390453125,8.158485905456544,20.2059453125,8.159045905456544C21.0728453125,8.159595905456543,21.7754453125,8.862205905456543,21.7759453125,9.729085905456543ZM20.9899453125,16.79303590545654C20.9899453125,18.093035905456542,19.9339453125,19.14703590545654,18.6329453125,19.14703590545654C17.3317453125,19.148235905456545,16.276045312500003,18.094235905456543,16.2749453125,16.79303590545654C16.2749453125,15.493035905456543,17.3309453125,14.438035905456543,18.6329453125,14.438035905456543C19.9341453125,14.437535905456542,20.9893453125,15.491935905456543,20.9899453125,16.79303590545654ZM9.9889453125,16.792035905456544C9.9894653125,17.660235905456545,9.2856453125,18.364335905456542,8.4174453125,18.364035905456543C7.5492453125,18.363735905456544,6.8458753125000005,17.65923590545654,6.8469453125,16.791035905456543C6.848015312499999,15.924035905456543,7.5513653125,15.221735905456542,8.418445312500001,15.222035905456544C9.285525312499999,15.222335905456543,9.9884353125,15.925035905456543,9.9889453125,16.792035905456544ZM12.3449453125,4.627085905456543C12.3640253125,5.290855905456543,11.8309753125,5.839215905456543,11.1669253125,5.838935905456543C10.5028853125,5.838655905456543,9.9702953125,5.289845905456543,9.9899453125,4.626085905456543C10.0087953125,3.989147905456543,10.5307153125,3.4826660154565428,11.1679353125,3.482935905456543C11.8051453125,3.483205795456543,12.3266353125,3.990131905456543,12.3449453125,4.627085905456543Z" fill="#6A83FC" fill-opacity="0.30000001192092896"/></g></g></g></svg>