<svg xmlns="http://www.w3.org/2000/svg" xmlns:xlink="http://www.w3.org/1999/xlink" fill="none" version="1.1" width="24" height="24" viewBox="0 0 24 24"><defs><clipPath id="master_svg0_283_256"><rect x="0" y="0" width="24" height="24" rx="0"/></clipPath></defs><g clip-path="url(#master_svg0_283_256)"><g><path d="M23.0000234375,2.8809518814086914L-0.0009765625,2.8809518814086914L-0.0009765625,7.4369518814086915L23.0000234375,7.4369518814086915L23.0000234375,2.8809518814086914ZM-0.0009765625,12.103031881408691L13.8010234375,12.102981881408692L13.8010234375,8.686981881408691L-0.0009765625,8.687011881408692L-0.0009765625,12.103031881408691ZM14.9470234375,8.686981881408691L14.9470234375,12.102981881408692L23.0000234375,12.102981881408692L23.0000234375,8.686981881408691L14.9470234375,8.686981881408691ZM-0.0009765625,16.547951881408693L13.8010234375,16.547951881408693L13.8010234375,13.129951881408692L-0.0009765625,13.129951881408692L-0.0009765625,16.547951881408693ZM23.0000234375,13.129951881408692L14.9470234375,13.129951881408692L14.9470234375,16.547951881408693L23.0000234375,16.547951881408693L23.0000234375,13.129951881408692ZM-0.0009765625,21.102951881408693L13.8010234375,21.102951881408693L13.8010234375,17.68695188140869L-0.0009765625,17.68695188140869L-0.0009765625,21.102951881408693ZM14.9470234375,17.68695188140869L14.9470234375,21.102951881408693L23.0000234375,21.102951881408693L23.0000234375,17.68695188140869L14.9470234375,17.68695188140869Z" fill-rule="evenodd" fill="#6A83FC" fill-opacity="1" style="mix-blend-mode:passthrough"/></g></g></svg>