<?xml version="1.0" encoding="utf-8"?>
<!-- Generator: Adobe Illustrator 16.0.0, SVG Export Plug-In . SVG Version: 6.00 Build 0)  -->
<!DOCTYPE svg PUBLIC "-//W3C//DTD SVG 1.1//EN" "http://www.w3.org/Graphics/SVG/1.1/DTD/svg11.dtd">
<svg version="1.1" id="图层_1" xmlns="http://www.w3.org/2000/svg" xmlns:xlink="http://www.w3.org/1999/xlink" x="0px" y="0px"
	 width="25px" height="24px" viewBox="0 0 25 24" enable-background="new 0 0 25 24" xml:space="preserve">
<path fill="#6A83FC" d="M20.98,22.504V7.499c-0.766,0.273-1.529,0.538-2.266,0.828c-0.756,0.387-1.258,0.903-1.638,1.547
	c-0.159,0.33-0.321,0.686-0.481,1.031h1.615v11.6h-3.523v-7.693c-0.161,0.221-0.331,0.43-0.503,0.605
	c-0.653,0.592-1.436,0.992-2.266,1.219v5.869H8.395v-6.059c-0.252-0.129-0.504-0.256-0.881-0.387
	c-0.616-0.291-1.268-0.361-1.888-0.248v6.691H2.102v-2.459c-0.04,0.047-0.08,0.094-0.126,0.141
	c-0.252,0.129-0.504,0.258-0.756,0.129c-0.251,0-0.503-0.258-0.629-0.516c-0.125-0.258-0.125-0.518,0-0.646
	c0.252-0.645,0.629-1.418,0.881-2.063c0.166-0.338,0.391-0.662,0.63-0.963v-1.229h1.322c0.933-0.605,2.001-0.867,3.208-0.771
	c0.63,0,1.133,0.258,1.763,0.516v-6.7h3.524v7.14c0.403-0.162,0.783-0.398,1.132-0.695c0.252-0.258,0.504-0.645,0.756-1.03
	c0.293-0.603,0.587-1.236,0.881-1.881v-0.569h0.257c0.25-0.555,0.5-1.113,0.75-1.675c0.376-0.773,1.006-1.547,1.763-2.063
	c0.25-0.128,0.627-0.386,0.879-0.515l2.646-1.041V1.497h3.522v21.007H20.98z"/>
</svg>
