<?xml version="1.0" encoding="utf-8"?>
<!-- Generator: Adobe Illustrator 16.0.0, SVG Export Plug-In . SVG Version: 6.00 Build 0)  -->
<!DOCTYPE svg PUBLIC "-//W3C//DTD SVG 1.1//EN" "http://www.w3.org/Graphics/SVG/1.1/DTD/svg11.dtd">
<svg version="1.1" id="图层_1" xmlns="http://www.w3.org/2000/svg" xmlns:xlink="http://www.w3.org/1999/xlink" x="0px" y="0px"
	 width="24px" height="24px" viewBox="0 -3 24 24" enable-background="new 0 -3 24 24" xml:space="preserve">
<path fill="#6A83FC" d="M6.734,17.032v-2.456h17.263v2.456H6.734z M19.939,9.418c-1.64,0-3.02-1.31-3.02-2.865h1.725
	c0,0.654,0.604,1.229,1.295,1.229c0.69,0,1.295-0.574,1.295-1.229c0-0.41-0.26-0.819-0.691-1.065
	c-0.344-0.164-0.518-0.409-0.518-0.737c0-0.327,0.26-0.573,0.518-0.737c0.432-0.163,0.691-0.573,0.691-1.064
	c0-0.655-0.604-1.228-1.295-1.228c-0.691,0-1.295,0.573-1.295,1.228H16.92c0-1.555,1.38-2.866,3.02-2.866
	c1.641,0,3.021,1.311,3.021,2.866c0,0.655-0.258,1.31-0.69,1.801c0.433,0.491,0.69,1.147,0.69,1.802
	C22.96,8.108,21.58,9.418,19.939,9.418z M8.374,9.009C8.202,8.681,8.288,8.354,8.461,8.108l3.625-4.257
	c0.259-0.246,0.432-0.573,0.432-0.901c0-0.327-0.086-0.655-0.346-0.9c-0.518-0.492-1.294-0.492-1.813,0
	c-0.172,0.245-0.345,0.573-0.345,0.9H8.288c0-0.819,0.259-1.555,0.863-2.047c0.604-0.491,1.381-0.819,2.158-0.819
	c0.863,0,1.552,0.246,2.158,0.819c0.518,0.573,0.863,1.31,0.863,2.047c0,0.737-0.346,1.474-0.863,2.047l-2.504,2.866h3.367V9.5
	H9.151C8.806,9.5,8.547,9.336,8.374,9.009z M2.851,12.939l2.157,4.093H0.693L2.851,12.939z M4.577,9.418H2.851V2.541L1.038,3.933
	L0.002,2.704l3.28-2.456c0.259-0.246,0.604-0.246,0.863-0.164C4.49,0.248,4.663,0.576,4.577,0.903V9.418z"/>
</svg>
