<?xml version="1.0" encoding="utf-8"?>
<!-- Generator: Adobe Illustrator 16.0.0, SVG Export Plug-In . SVG Version: 6.00 Build 0)  -->
<!DOCTYPE svg PUBLIC "-//W3C//DTD SVG 1.1//EN" "http://www.w3.org/Graphics/SVG/1.1/DTD/svg11.dtd">
<svg version="1.1" id="图层_1" xmlns="http://www.w3.org/2000/svg" xmlns:xlink="http://www.w3.org/1999/xlink" x="0px" y="0px"
	 width="24px" height="24px" viewBox="88 88 24 24" enable-background="new 88 88 24 24" xml:space="preserve">
<g display="none">
	<path display="inline" opacity="0.3" fill="#6A83FC" d="M93.07,109.77l1.649-2.201c-1.801-1.512-2.956-3.793-2.956-6.338
		c0-4.552,3.699-8.25,8.25-8.25s8.251,3.698,8.251,8.25c0,2.545-1.156,4.826-2.971,6.338l1.65,2.201
		c2.475-2.021,4.056-5.088,4.056-8.539c0-6.078-4.923-11-11-11c-6.078,0-11,4.923-11,11C89.013,104.666,90.594,107.748,93.07,109.77
		z"/>
	<path display="inline" fill="#6A83FC" d="M91.763,101.23c0-4.552,3.699-8.25,8.25-8.25c1.706,0,3.286,0.522,4.606,1.402
		l1.638-2.214c-1.788-1.224-3.933-1.939-6.244-1.939c-6.078,0-11,4.923-11,11c0,3.436,1.581,6.518,4.057,8.539l1.649-2.201
		C92.918,106.057,91.763,103.775,91.763,101.23z"/>
	<path display="inline" fill="#6A83FC" d="M101.539,102.152c0.151-0.207,0.248-0.428,0.317-0.662l4.552-9.72l-7.701,7.479
		c-0.192,0.138-0.371,0.303-0.522,0.51c-0.66,0.92-0.439,2.213,0.481,2.873C99.587,103.291,100.88,103.072,101.539,102.152z"/>
</g>
<g>
	<path opacity="0.3" fill="#6A83FC" d="M93.07,109.77l1.649-2.201c-1.801-1.512-2.956-3.793-2.956-6.338
		c0-4.552,3.699-8.25,8.25-8.25s8.251,3.698,8.251,8.25c0,2.545-1.156,4.826-2.971,6.338l1.65,2.201
		c2.475-2.021,4.056-5.088,4.056-8.539c0-6.078-4.923-11-11-11c-6.078,0-11,4.923-11,11C89.013,104.666,90.594,107.748,93.07,109.77
		z"/>
	<path fill="#6A83FC" d="M105.294,107.568l1.649,2.201c2.476-2.021,4.057-5.104,4.057-8.539c0-6.078-4.922-11-11-11
		c-2.311,0-4.456,0.715-6.244,1.939l1.638,2.214c1.32-0.88,2.9-1.402,4.606-1.402c4.551,0,8.25,3.698,8.25,8.25
		C108.25,103.775,107.095,106.057,105.294,107.568z"/>
	<path fill="#6A83FC" d="M101.539,102.152c0.151-0.207,0.248-0.428,0.317-0.662l4.552-9.72l-7.701,7.479
		c-0.192,0.138-0.371,0.302-0.522,0.509c-0.66,0.92-0.439,2.213,0.481,2.874C99.587,103.291,100.88,103.072,101.539,102.152z"/>
</g>
</svg>
