<?xml version="1.0" encoding="utf-8"?>
<!-- Generator: Adobe Illustrator 16.0.0, SVG Export Plug-In . SVG Version: 6.00 Build 0)  -->
<!DOCTYPE svg PUBLIC "-//W3C//DTD SVG 1.1//EN" "http://www.w3.org/Graphics/SVG/1.1/DTD/svg11.dtd">
<svg version="1.1" id="图层_1" xmlns="http://www.w3.org/2000/svg" xmlns:xlink="http://www.w3.org/1999/xlink" x="0px" y="0px"
	 width="24px" height="24px" viewBox="88 88 24 24" enable-background="new 88 88 24 24" xml:space="preserve">
<path fill="#6A83FC" d="M93.07,109.77l1.649-2.2c-1.801-1.512-2.956-3.794-2.956-6.338c0-4.552,3.699-8.25,8.25-8.25
	s8.251,3.698,8.251,8.25c0,2.544-1.156,4.826-2.971,6.338l1.65,2.2c2.475-2.021,4.056-5.088,4.056-8.538
	c0-6.078-4.923-11.001-11-11.001c-6.078,0-11,4.923-11,11.001C89.013,104.667,90.594,107.749,93.07,109.77z"/>
<path fill="#6A83FC" d="M91.763,101.231c0-4.552,3.699-8.25,8.25-8.25c1.706,0,3.286,0.522,4.606,1.402l1.638-2.214
	c-1.788-1.224-3.933-1.939-6.244-1.939c-6.078,0-11,4.923-11,11.001c0,3.436,1.581,6.518,4.057,8.538l1.649-2.2
	C92.918,106.058,91.763,103.775,91.763,101.231z"/>
<path fill="#6A83FC" d="M101.539,102.152c0.151-0.207,0.248-0.428,0.317-0.661l4.552-9.72l-7.701,7.479
	c-0.192,0.138-0.371,0.303-0.522,0.509c-0.66,0.921-0.439,2.214,0.481,2.875C99.587,103.292,100.88,103.072,101.539,102.152z"/>
</svg>
