<?xml version="1.0" encoding="utf-8"?>
<!-- Generator: Adobe Illustrator 16.0.0, SVG Export Plug-In . SVG Version: 6.00 Build 0)  -->
<!DOCTYPE svg PUBLIC "-//W3C//DTD SVG 1.1//EN" "http://www.w3.org/Graphics/SVG/1.1/DTD/svg11.dtd">
<svg version="1.1" id="图层_1" xmlns="http://www.w3.org/2000/svg" xmlns:xlink="http://www.w3.org/1999/xlink" x="0px" y="0px"
	 width="24px" height="24px" viewBox="88 88 24 24" enable-background="new 88 88 24 24" xml:space="preserve">
<path opacity="0.3" fill="#6A83FC" d="M111,101.231c0-6.078-4.923-11.001-11-11.001s-11,4.923-11,11.001
	c0,3.45,1.581,6.518,4.056,8.538l1.65-2.2c-1.814-1.512-2.971-3.794-2.971-6.338c0-4.552,3.7-8.25,8.251-8.25s8.25,3.698,8.25,8.25
	c0,2.544-1.155,4.826-2.956,6.338l1.649,2.2C109.405,107.749,110.986,104.667,111,101.231z"/>
<path fill="#6A83FC" d="M91.75,101.231c0-4.552,3.698-8.25,8.25-8.25c1.706,0,3.286,0.522,4.606,1.402l1.638-2.214
	c-1.788-1.224-3.933-1.939-6.244-1.939c-6.078,0-11,4.923-11,11.001c0,3.436,1.581,6.518,4.057,8.538l1.649-2.2
	C92.905,106.058,91.75,103.775,91.75,101.231z"/>
<path fill="#6A83FC" d="M101.334,102.634c0.921-0.66,1.142-1.953,0.481-2.875c-0.152-0.206-0.33-0.371-0.522-0.509l-7.701-7.479
	l4.552,9.72c0.069,0.233,0.166,0.454,0.317,0.661C99.12,103.072,100.413,103.292,101.334,102.634z"/>
</svg>
