<svg xmlns="http://www.w3.org/2000/svg" xmlns:xlink="http://www.w3.org/1999/xlink" fill="none" version="1.1" width="24" height="24" viewBox="0 0 24 24"><defs><clipPath id="master_svg0_909_0074"><rect x="0" y="0" width="24" height="24" rx="0"/></clipPath></defs><g clip-path="url(#master_svg0_909_0074)"><g><g><path d="M0,3L5.20002,3L5.20002,8.20002L0,8.20002L0,3Z" fill="#6A83FC" fill-opacity="0.30000001192092896" style="mix-blend-mode:passthrough"/></g><g><path d="M6.266298294067383,3L11.466318294067383,3L11.466318294067383,8.20002L6.266298294067383,8.20002L6.266298294067383,3ZM12.532988294067383,3L17.732998294067382,3L17.732998294067382,8.20002L12.532988294067383,8.20002L12.532988294067383,3Z" fill="#6A83FC" fill-opacity="0.6000000238418579"/></g><g><path d="M18.79998016357422,3L24.00000016357422,3L24.00000016357422,8.20002L18.79998016357422,8.20002L18.79998016357422,3Z" fill="#6A83FC" fill-opacity="1" style="mix-blend-mode:passthrough"/></g><g><path d="M0,9.213129997253418L5.20002,9.213129997253418L5.20002,14.413149997253418L0,14.413149997253418L0,9.213129997253418Z" fill="#6A83FC" fill-opacity="0.6000000238418579"/></g><g><path d="M6.266298294067383,9.213129997253418L11.466318294067383,9.213129997253418L11.466318294067383,14.413149997253418L6.266298294067383,14.413149997253418L6.266298294067383,9.213129997253418Z" fill="#6A83FC" fill-opacity="1" style="mix-blend-mode:passthrough"/></g><g><path d="M12.533681869506836,9.213129997253418L17.733701869506838,9.213129997253418L17.733701869506838,14.413149997253418L12.533681869506836,14.413149997253418L12.533681869506836,9.213129997253418Z" fill="#6A83FC" fill-opacity="0.30000001192092896" style="mix-blend-mode:passthrough"/></g><g><path d="M18.79998016357422,9.213129997253418L24.00000016357422,9.213129997253418L24.00000016357422,14.413149997253418L18.79998016357422,14.413149997253418L18.79998016357422,9.213129997253418Z" fill="#6A83FC" fill-opacity="0.10000000149011612" style="mix-blend-mode:passthrough"/></g><g><path d="M0,15.426802635192871L5.20002,15.426802635192871L5.20002,20.626822635192873L0,20.626822635192873L0,15.426802635192871Z" fill="#6A83FC" fill-opacity="0.30000001192092896" style="mix-blend-mode:passthrough"/></g><g><path d="M6.266298294067383,15.426802635192871L11.466318294067383,15.426802635192871L11.466318294067383,20.626822635192873L6.266298294067383,20.626822635192873L6.266298294067383,15.426802635192871Z" fill="#6A83FC" fill-opacity="0.6000000238418579"/></g><g><path d="M12.533681869506836,15.426802635192871L17.733701869506838,15.426802635192871L17.733701869506838,20.626822635192873L12.533681869506836,20.626822635192873L12.533681869506836,15.426802635192871Z" fill="#6A83FC" fill-opacity="0.10000000149011612" style="mix-blend-mode:passthrough"/></g><g><path d="M18.79998016357422,15.426802635192871L24.00000016357422,15.426802635192871L24.00000016357422,20.626822635192873L18.79998016357422,20.626822635192873L18.79998016357422,15.426802635192871Z" fill="#6A83FC" fill-opacity="0.10000000149011612" style="mix-blend-mode:passthrough"/></g></g></g></svg>