<?xml version="1.0" encoding="utf-8"?>
<!-- Generator: Adobe Illustrator 16.0.0, SVG Export Plug-In . SVG Version: 6.00 Build 0)  -->
<!DOCTYPE svg PUBLIC "-//W3C//DTD SVG 1.1//EN" "http://www.w3.org/Graphics/SVG/1.1/DTD/svg11.dtd">
<svg version="1.1" id="图层_1" xmlns="http://www.w3.org/2000/svg" xmlns:xlink="http://www.w3.org/1999/xlink" x="0px" y="0px"
	 width="24px" height="24px" viewBox="0 0 24 24" enable-background="new 0 0 24 24" xml:space="preserve">
<path fill="#6A83FC" d="M2.1,3.2c0.607,0,1.1,0.495,1.1,1.107v9.166l5.646-4.771c0.424-0.358,1.049-0.344,1.457,0.033l3.225,2.981
	l6.545-5.674c0.454-0.404,1.148-0.365,1.554,0.089c0.405,0.453,0.364,1.148-0.089,1.553c-0.008,0.007-0.016,0.013-0.023,0.02
	l-7.29,6.321c-0.423,0.367-1.055,0.356-1.468-0.024L9.523,11.01L3.2,16.354V18.6h18.708c0.562,0,1.021,0.422,1.084,0.972L23,19.7
	c0,0.606-0.501,1.1-1.092,1.1H1V4.308c0-0.568,0.421-1.036,0.971-1.1L2.1,3.2z"/>
</svg>
