<svg xmlns="http://www.w3.org/2000/svg" xmlns:xlink="http://www.w3.org/1999/xlink" fill="none" version="1.1" width="24" height="24" viewBox="0 0 24 24"><defs><clipPath id="master_svg0_565_870"><rect x="0" y="0" width="24" height="24" rx="0"/></clipPath></defs><g clip-path="url(#master_svg0_565_870)"><g><path d="M20.9006,17.548299999999998L20.7714,18.3042L20.7047,18.5443L20.7047,18.746000000000002L20.6472,18.802599999999998L20.5089,18.6009L20.3614,18.4876L20.2322,18.1492L20.2464,17.8442L20.4614,17.29L20.7147,17.0783L20.8764,17.1533L20.9006,17.548299999999998ZM16.144199999999998,20.5695L15.9417,20.922L15.9417,21.0771L15.5383,21.4054L15.1216,21.2604L15.0408,20.9646L15.0649,20.8279L15.29,20.6028L15.37,20.537L15.74,20.4712L15.9092,20.457L15.9659,20.3911L16.087600000000002,20.4245L16.144199999999998,20.5695ZM9.78017,9.231539999999999L9.85101,9.23988L10.13271,9.287379999999999L10.9653,9.36739L11.092,9.31072L11.7787,9.39073L11.9054,9.53658L12.3763,9.68159L12.7847,9.704930000000001L12.818,9.79411L12.9072,9.84161L13.2131,9.649090000000001L13.8806,9.36739L13.9698,9.37656L14.544,9.32072L14.8966,9.165700000000001L15.1649,8.82733L15.3483,8.71482L15.48,8.578140000000001L15.2775,8.28227L15.3483,8.02391L15.4942,7.87889L15.6158,7.93473L15.9875,8.01474L16.1809,7.90223L16.3826,7.62969L16.5659,7.60636L16.857599999999998,7.41884L16.881,7.26882L17.0177,7.0663L17.2202,7.02463L17.3002,6.89711L17.4127,6.91128L17.5586,6.79877L17.9861,6.77543L18.0661,6.71876L18.0661,6.6395800000000005L17.6952,6.2537L17.3894,6.14119L17.2293,6.1787L17.1402,6.32455L16.8343,6.30121L16.645899999999997,6.40455L16.5334,6.31038L16.486800000000002,6.1787L16.5759,6.08535L16.7593,5.351929999999999L16.7776,5.28693L16.905099999999997,5.333600000000001L17.1302,5.37527L17.5494,5.071070000000001L17.6052,4.97189L17.5352,4.85938L17.7186,4.18347L17.8169,4.03762L17.8736,3.934273L17.7752,3.67591L17.6477,3.6617420000000003L17.5819,3.62007L17.7511,3.370875L17.9536,3.225025L18.0336,3.225025L18.1136,3.155018L18.5512,3L18.8804,3.0658412L19.0262,3.0991783L19.1954,3.0425053L19.4538,3.169187L19.5104,3.305036L19.7121,3.563399L19.7688,3.709249L19.9522,3.957611L20.0322,4.08012L20.1638,4.21597L20.2014,4.32932L20.3005,4.4418299999999995L20.4039,4.58685L20.5731,4.6435200000000005L20.7656,4.61018L20.8973,4.67686L21.0106,4.6343499999999995L21.2923,4.77937L21.4523,4.78937L21.4998,4.9393899999999995L21.5982,5.085240000000001L21.5748,5.17442L21.7674,5.3194300000000005L22.1857,5.17442L22.3558,4.9393899999999995L22.5249,4.85938L22.6941,4.66769L22.84,4.61102L22.8967,4.6902L22.8725,4.77937L23,4.9252199999999995L22.8867,5.15025L22.8967,5.85033L22.8633,5.98618L22.8867,6.066190000000001L22.8066,6.21204L22.8308,6.35705L22.76,6.42373L22.3791,6.42373L22.2757,6.61542L22.1624,6.728759999999999L22.3649,7.04296L22.3883,7.3155L22.4374,7.39884L22.4683,7.45134L22.4216,7.62053L22.2524,7.84556L22.1857,7.78972L22.1199,7.71888L22.0499,7.74304L22.0165,7.86973L22.0082,8.05725L21.8807,8.11309L21.7815,8.30561L21.5415,8.38562L21.5082,8.433119999999999L21.6315,8.620650000000001L21.5415,8.70065L21.2831,8.73399L21.1231,8.643979999999999L21.0573,8.66732L20.9114,9.0857L20.7514,9.18404L20.5822,9.376570000000001L20.3147,9.77078L20.178,9.804120000000001L19.7496,10.04331L19.4679,10.41419L19.2754,10.51753L19.2512,10.47086L19.3646,10.35835L19.3737,10.23583L19.2279,10.13249L19.3879,9.883289999999999L19.5104,9.6166L19.3412,9.44741L19.0729,9.503250000000001L18.9129,9.77078L18.7528,9.9633L18.6545,10.01998L18.4611,10.30167L18.4611,10.40502L18.1319,10.58337L18.0003,10.52754L17.9069,10.59254L17.8736,10.742560000000001L17.9152,10.847570000000001L17.9769,11.00092L18.0419,11.04593L18.1561,11.12344L18.3395,11.08177L18.452,11.14677L18.4936,11.32513L18.5086,11.42847L18.7103,11.51765L18.8003,11.46181L19.1154,11.0576L19.2421,11.03426L19.4538,11.13761L19.7596,11.1001L19.8963,11.11427L19.9196,11.30596L19.8255,11.39597L19.6229,11.46098L19.3646,11.701L19.3079,11.82268L19.2046,11.87936L19.1387,11.85602L19.082,11.91186L19.1387,12.00104L18.8237,12.53193L19.1054,12.72445L19.3079,12.80446L19.6938,13.4479L19.6796,13.5137L19.938,13.6354L20.0088,13.7479L20.1313,13.8046L20.1872,13.9171L20.1072,13.9546L19.9755,13.9079L19.7921,13.9079L19.6229,13.8512L19.5571,13.9079L19.7121,13.9546L19.8621,14.0213L20.018,14.0863L20.1872,14.1563L20.2672,14.2696L20.2105,14.3488L20.0446,14.4755L19.9755,14.528L19.8963,14.6497L19.7688,14.6872L19.7271,14.7205L19.8488,14.7864L20.0738,14.6872L20.4464,14.8422L20.4839,15.1572L20.3338,15.1572L20.3238,15.2506L20.4039,15.3823L20.333,15.4623L20.413,15.5889L20.2905,15.734L20.2347,15.664L20.0513,16.128999999999998L20.0238,16.194000000000003L19.863,16.579900000000002L19.7688,16.532400000000003L19.7029,16.5657L19.6938,16.6032L19.783,16.7016L19.7596,17.0541L19.783,17.166600000000003L19.7596,17.2L19.6563,17.175800000000002L19.5896,17.2416L19.6371,17.3358L19.5104,17.4575L19.5338,17.5042L19.4112,17.5708L19.4304,17.6592L19.3879,17.706699999999998L19.2187,17.706699999999998L19.1295,17.7867L19.1154,17.82L19.1954,17.8759L19.1062,18.011699999999998L18.9929,18.157600000000002L18.9462,18.1434L18.8237,18.2701L18.7345,18.335900000000002L18.6545,18.4809L18.5837,18.5051L18.5178,18.641L18.2928,18.753500000000003L18.2028,18.7068L18.1461,18.801000000000002L18.1461,18.8335L17.9536,18.8335L17.8136,18.9227L17.7836,19.1194L17.6477,19.1794L17.4952,19.1794L17.4127,19.0352L17.2635,18.8752L17.1968,19.0027L17.2668,19.1944L17.0835,19.2702L16.984299999999998,19.4061L16.7926,19.4536L16.688499999999998,19.4952L16.486800000000002,19.4952L16.350099999999998,19.6319L15.9875,19.7586L15.8092,19.8803L15.7192,19.9695L15.8892,20.242L15.7758,20.3403L15.64,20.332L15.48,20.0403L15.5175,19.8336L15.5175,19.7353L15.2216,19.7769L15.0658,19.6644L14.9058,19.5986L14.7466,19.7586L14.5815,19.7678L14.4215,19.7778L14.0598,19.5752L13.9931,19.3969L14.0832,19.2135L13.9798,19.1385L13.8431,19.1385L13.8098,19.101L13.6648,19.1385L13.5189,19.0352L13.4389,18.955199999999998L13.2931,18.988500000000002L13.1897,19.1385L13.0672,19.2369L12.9405,19.261L12.898,19.2277L12.8088,19.3169L12.7713,19.3735L12.7288,19.3735L12.6255,19.2702L12.5121,19.3402L12.4563,19.2844L12.343,19.3827L12.0746,19.2935L11.9712,19.4202L11.7362,19.4202L11.6804,19.5186L11.7554,19.8478L11.7554,20.0261L11.7129,20.0728L11.6662,20.0395L11.5437,20.0586L11.487,20.0028L11.4537,19.8903L11.4537,19.8153L11.3837,19.7778L11.1587,19.9036L10.97947,19.9036L10.85196,19.7119L10.87612,19.6452L10.68277,19.5752L10.57026,19.5661L10.52775,19.5094L10.59359,19.3502L10.60776,19.2135L10.69694,19.101L10.61693,19.0452L10.43857,19.0352L10.40107,18.979300000000002L10.3819,18.810200000000002L10.32522,18.6976L10.35856,18.5751L10.05269,18.5943L9.836,18.650100000000002L9.8035,18.6318L9.86017,18.4951L9.7935,18.311799999999998L9.8035,18.236800000000002L9.88351,18.1667L9.90685,18.020899999999997L10.33523,17.6359L10.36857,17.0166L10.34356,16.837400000000002L10.27855,16.7908L10.19855,16.7908L10.0527,16.6282L10.00269,16.4807Q9.89601,16.2974,9.84267,16.3074Q9.7885,16.3174,9.70682,16.4332L9.64015,16.6541L9.40929,16.583199999999998L9.33428,16.4999L9.05175,16.3774L8.79589,16.4099L8.46335,16.6032L8.38584,16.6282L8.23832,16.6032L8.195820000000001,16.6282L8.04497,16.8508L7.89662,16.9291Q7.49074,16.954900000000002,7.44823,16.954900000000002Q7.35906,16.954900000000002,7.31572,16.7716L7.31572,16.5916L7.1557,16.5499L7.16987,16.3774L6.93901,16.3307L6.73232,16.209L6.53063,16.1707L6.2481,16.3774L6.02307,16.5657L5.96556,16.4991L6.01307,16.3074L5.9564,16.2182L5.73971,16.2274L5.33549,16.241500000000002L5.15214,16.1057L5.03046,16.1057L4.804600000000001,16.114L4.75709,16.0815L4.74793,15.9832L4.48956,15.8332L4.44206,15.664L4.37622,15.6781L4.0703499999999995,15.5089L4.0703499999999995,15.3073L4.01451,15.2506L3.94784,15.3164L3.83532,15.3164L3.74115,15.0914L3.22442,14.6497L3.10191,14.5372L2.96522,14.673L2.89522,14.6497L2.8202100000000003,14.5605L2.59435,14.3113L2.59435,14.2363L2.28848,13.9971L2.2176400000000003,13.8754L2.08596,13.8613L2.07179,13.7863L2.10513,13.6921L2.10513,13.5604L2.08596,13.457L2.02928,13.3112L2.04845,13.222L2.1517999999999997,13.2078L2.25514,13.3212L2.4576700000000002,13.297L2.49934,13.222L2.491,13.0303L2.35432,12.89365L2.36182,12.76697L2.4101600000000003,12.77113Q2.40183,12.67695,2.4101600000000003,12.62612Q2.4184900000000003,12.57611,2.451,12.5261L2.50017,12.44026L2.55268,12.32441Q2.5335099999999997,12.24274,2.41099,12.19023Q2.28765,12.13773,2.30431,11.73435L2.0392799999999998,11.71018L1.667576,11.43765L1.564231,11.42931L1.484222,11.25013L1.540895,11.06677L1.5217260000000001,10.977599999999999L1.385044,10.88842L1.338373,10.799240000000001L1.0558408,10.64006L1.0558408,10.59255L1.192523,10.53671L1.272531,10.58338L1.35254,10.50337L1.329204,10.23668L1.35254,10.010819999999999L1.169186,9.82747L1.0466718,9.860800000000001L1,9.728290000000001L1.0700076,9.59244L1.0325033,9.46576L1.152517,9.35741L1.202523,9.31074L1.202523,9.20739L1.370875,9.12739L1.540895,9.09488L1.690912,9.03821L1.813426,9.07155L1.902603,9.03821L1.9359410000000001,9.062380000000001L1.9501089999999999,9.174890000000001L2.02928,9.20823L2.2176400000000003,9.198229999999999L2.43433,8.95903L2.87605,9.05238L3.10191,8.89319L3.75531,8.747340000000001L3.79782,8.65817L3.85449,8.40897L4.037850000000001,8.263950000000001L4.09452,8.263950000000001L4.09452,8.18895L4.10285,7.56387L4.13619,7.43719L3.95784,7.37135L3.94867,7.32468L4.13619,7.26801L4.6254100000000005,7.22634L4.700419999999999,7.32468L4.87044,7.36218L4.91711,7.37135L4.98379,7.28217L4.89378,7.193L5.25549,6.46125L5.31216,6.42291L5.64136,6.58293L5.78721,6.58293L5.85305,6.67211L6.16809,6.57376L6.2481,6.05203L6.38478,5.96286L6.54397,5.95369L6.65731,5.81784L6.69898,5.68116L6.78899,5.6344899999999996L6.99318,5.68199L7.08486,5.68199L7.02902,5.85951L7.10903,5.95369L7.1182,6.01953L7.29655,6.19789L7.34406,6.33373L7.57908,6.3479L7.68243,6.43708L7.7391,6.43708L7.87495,6.72878L8.01163,7.08049L7.94163,7.29218L7.95496,7.37135L7.82828,7.58804L7.86162,7.7564L8.303329999999999,7.94475L8.77839,8.014759999999999L9.27178,8.35313L9.4318,8.40981L9.4418,8.49898L9.54514,8.714839999999999L9.64849,8.99654L9.78017,9.231539999999999Z" fill="#6A83FC" fill-opacity="1"/></g></g></svg>