<svg xmlns="http://www.w3.org/2000/svg" xmlns:xlink="http://www.w3.org/1999/xlink" fill="none" version="1.1" width="24" height="24" viewBox="0 0 24 24"><defs><clipPath id="master_svg0_565_905"><rect x="0" y="0" width="24" height="24" rx="0"/></clipPath></defs><g clip-path="url(#master_svg0_565_905)"><g><g><path d="M20.898072499999998,17.344987L20.7689125,18.1008L20.7022425,18.34079L20.7022425,18.54246L20.6447425,18.59912L20.5064125,18.39746L20.3589225,18.28413L20.2297625,17.9458L20.2439225,17.640813L20.4589225,17.086661L20.712242500000002,16.875L20.8739125,16.9499981L20.898072499999998,17.344987ZM16.1423625,20.36574L15.9398715,20.71823L15.9398715,20.87323L15.5365495,21.20155L15.1198938,21.05656L15.0390625,20.76073L15.063228,20.62407L15.2882225,20.399070000000002L15.3682205,20.33324L15.7382115,20.267409999999998L15.9073725,20.25325L15.964038500000001,20.18741L16.0857025,20.22075L16.1423625,20.36574Z" fill="#6A83FC" fill-opacity="1"/></g><g><path d="M9.77894,9.029253984375L9.84977,9.037583984375L10.13142,9.085083984375L10.9639,9.165083984375L11.0906,9.108413984375L11.7772,9.188413984375L11.9039,9.334243984375L12.3747,9.479243984375L12.783,9.502573984375001L12.8164,9.591733984375L12.9055,9.639233984375L13.2113,9.446743984375L13.8788,9.165083984375L13.968,9.174243984375L14.5421,9.118413984375L14.8946,8.963423984375L15.163,8.625093984374999L15.3463,8.512603984375L15.478,8.375933984375L15.2755,8.080113984375L15.3463,7.821783984375L15.4921,7.676793984375L15.6138,7.732623984375L15.9854,7.812613984375L16.178800000000003,7.700123984375L16.3804,7.427633984375L16.5638,7.404293984375L16.8554,7.216803984375L16.878700000000002,7.066803984375L17.0154,6.864313984375L17.2179,6.822643984375L17.2979,6.695143984375L17.4104,6.709313984375L17.5562,6.596813984375L17.9837,6.573483984375001L18.0637,6.516823984375L18.0637,6.437653984375L17.6929,6.0518339843749995L17.3871,5.939333984375001L17.2271,5.976833984375L17.1379,6.122663984375L16.8321,6.099333984375L16.6438,6.202663984375L16.5313,6.108493984375L16.4846,5.976833984375L16.5738,5.883503984375L16.7571,5.1501839843749995L16.775399999999998,5.085193984375L16.902900000000002,5.131853984375001L17.1279,5.1735239843750005L17.5471,4.869363984375L17.6029,4.770193984375L17.5329,4.657703984375L17.7162,3.981883984375L17.8146,3.836053984375L17.8712,3.732725984375L17.7729,3.474398984375L17.6454,3.460232984375L17.5796,3.418566984375L17.7487,3.169406984375L17.9512,3.023577984375L18.0312,3.023577984375L18.1112,2.953579984375L18.5487,2.798583984375L18.8779,2.864415984375L19.0237,2.897748384375L19.1929,2.841083384375L19.4512,2.967746984375L19.5078,3.103576984375L19.7095,3.361903984375L19.7662,3.507732984375L19.9495,3.7560599843749998L20.0295,3.8785539843750003L20.1612,4.014383984375L20.1987,4.127713984375L20.2978,4.240213984375L20.4012,4.3852139843749995L20.5703,4.441873984375L20.7628,4.408543984375L20.8945,4.475203984375L21.0078,4.432713984375L21.2895,4.577703984375L21.4495,4.5877039843750005L21.497,4.737703984375L21.5953,4.883533984375L21.572,4.972693984375001L21.7645,5.117693984375L22.1828,4.972693984375001L22.3528,4.737703984375L22.5219,4.657703984375L22.6911,4.466043984375L22.8369,4.409373984375L22.8936,4.488543984375L22.8694,4.577703984375L22.9969,4.723533984375L22.8836,4.9485339843750005L22.8936,5.6485139843750005L22.8603,5.784343984375L22.8836,5.864343984375L22.8036,6.010173984375L22.8278,6.155163984375L22.7569,6.2218339843749995L22.3761,6.2218339843749995L22.2728,6.413493984375L22.1594,6.5268239843749996L22.3619,6.840983984375L22.3853,7.113473984375L22.4344,7.196803984375L22.4653,7.249303984375L22.4186,7.418463984375L22.2494,7.643453984375L22.1828,7.587623984375L22.1169,7.516793984375L22.0469,7.540963984375L22.0136,7.667623984375L22.0053,7.855123984375L21.8778,7.910953984375L21.7786,8.103443984375L21.5386,8.183443984375L21.5053,8.230943984375L21.6286,8.418443984375L21.5386,8.498433984375L21.2803,8.531773984375L21.1203,8.441773984375L21.0545,8.465103984375L20.9086,8.883433984375L20.7486,8.981763984375L20.5795,9.174253984375L20.312,9.568413984374999L20.1753,9.601743984375L19.747,9.840903984375L19.4653,10.211733984375L19.2728,10.315063984375L19.2487,10.268393984374999L19.362,10.155893984375L19.3712,10.033403984375L19.2253,9.930073984375L19.3853,9.680913984375L19.5078,9.414253984375L19.3387,9.245093984375L19.0703,9.300923984375L18.9104,9.568413984374999L18.7504,9.760913984375L18.652,9.817573984374999L18.4587,10.099233984375001L18.4587,10.202563984375L18.1295,10.380893984375L17.9979,10.325063984375L17.9045,10.390063984375L17.8712,10.540053984375L17.9129,10.645053984375L17.9745,10.798383984375L18.0395,10.843383984375L18.1537,10.920883984375L18.337,10.879213984375L18.4495,10.944213984375L18.4912,11.122543984375L18.5062,11.225873984375L18.7079,11.315033984375L18.7978,11.259203984375L19.1128,10.855053984375L19.2395,10.831713984375L19.4512,10.935043984375L19.757,10.897543984375L19.8937,10.911713984375L19.917,11.103373984375L19.8228,11.193373984375L19.6203,11.258373984375L19.362,11.498363984375L19.3053,11.620023984375L19.202,11.676693984375L19.1362,11.653363984375L19.0795,11.709193984375L19.1362,11.798353984375L18.8212,12.329173984375L19.1028,12.521673984375L19.3053,12.601673984375L19.6912,13.244983984375L19.677,13.310783984375L19.9353,13.432483984375L20.0061,13.544983984375L20.1286,13.601683984375L20.1845,13.714183984375L20.1045,13.751683984375L19.9728,13.704983984375L19.7895,13.704983984375L19.6203,13.648283984375L19.5545,13.704983984375L19.7095,13.751683984375L19.8595,13.818283984375L20.0153,13.883283984375L20.1845,13.953283984375L20.2645,14.066583984375L20.2078,14.145783984375L20.042,14.272483984375L19.9728,14.324983984375L19.8937,14.446583984375L19.7662,14.484083984375L19.7245,14.517483984375L19.8462,14.583283984375L20.0711,14.484083984375L20.4436,14.639083984375L20.4811,14.954083984375L20.3311,14.954083984375L20.3211,15.047483984375L20.4011,15.179083984375L20.3303,15.259083984375L20.4103,15.385783984375L20.2878,15.530783984375L20.232,15.460783984375L20.0486,15.925783984375L20.0211,15.990783984375L19.8603,16.376583984375L19.7662,16.329083984375L19.7003,16.362383984375L19.6912,16.399883984375002L19.7803,16.498283984375L19.757,16.850683984375L19.7803,16.963183984375L19.757,16.996583984375L19.6537,16.972383984375L19.587,17.038183984375L19.6345,17.132383984375L19.5078,17.254083984375L19.5312,17.300683984375L19.4087,17.367383984375L19.4278,17.455683984375L19.3853,17.503183984375L19.2162,17.503183984375L19.127,17.583183984374998L19.1128,17.616583984374998L19.1928,17.672383984375L19.1037,17.808183984375L18.9903,17.954083984375L18.9437,17.939883984375L18.8212,18.066483984374997L18.732,18.132383984375L18.652,18.277383984375L18.5812,18.301483984375L18.5154,18.437383984375L18.2904,18.549883984375L18.2004,18.503183984375L18.1437,18.597383984375L18.1437,18.629883984375L17.9512,18.629883984375L17.8112,18.718983984375L17.7812,18.915683984375L17.6454,18.975683984375L17.4929,18.975683984375L17.4104,18.831483984375L17.2612,18.671483984375L17.1946,18.798983984375L17.2646,18.990683984375L17.0812,19.066483984375L16.982100000000003,19.202383984375L16.790399999999998,19.249883984375L16.6863,19.291483984375L16.4846,19.291483984375L16.3479,19.428183984375L15.9854,19.554783984375L15.8071,19.676483984375L15.7171,19.765683984375L15.8871,20.038183984375L15.7738,20.136483984375L15.6379,20.128183984375L15.478,19.836483984375L15.5155,19.629783984375L15.5155,19.531483984375L15.2196,19.573183984375L15.0638,19.460683984375L14.9038,19.394783984375L14.7446,19.554783984375L14.5796,19.563983984375L14.4196,19.573983984375L14.058,19.371483984375L13.9913,19.193183984375L14.0813,19.009883984375L13.978,18.934883984375L13.8413,18.934883984375L13.808,18.897383984375L13.663,18.934883984375L13.5172,18.831483984375L13.4372,18.751483984375L13.2913,18.784883984375L13.188,18.934883984375L13.0655,19.033183984375L12.9389,19.057383984375L12.8964,19.023983984375L12.8072,19.113183984375L12.7697,19.169783984375L12.7272,19.169783984375L12.6239,19.066483984375L12.5105,19.136483984375L12.4547,19.080683984375L12.3414,19.178983984375L12.073,19.089883984375L11.9697,19.216483984375L11.7347,19.216483984375L11.6789,19.314783984375L11.7539,19.643983984375L11.7539,19.822283984375L11.7114,19.868983984375L11.6647,19.835683984375L11.5422,19.854783984375L11.4856,19.798983984375L11.4522,19.686483984375L11.4522,19.611483984375L11.3822,19.573983984375L11.1572,19.699783984375L10.97807,19.699783984375L10.85057,19.508183984375L10.87474,19.441483984375L10.68141,19.371483984375L10.56891,19.362283984375L10.52641,19.305683984375L10.59225,19.146483984375L10.60641,19.009883984375L10.69558,18.897383984375L10.61558,18.841483984375L10.43725,18.831483984375L10.39975,18.775683984375L10.38058,18.606483984375L10.32392,18.493983984375L10.35725,18.371483984375L10.05142,18.390683984375002L9.83476,18.446483984375L9.80227,18.428183984375L9.85893,18.291483984375L9.79227,18.108183984375L9.80227,18.033183984375L9.88226,17.963183984375L9.9056,17.817383984375L10.33392,17.432383984375L10.36725,16.813183984375L10.34225,16.634083984375L10.27725,16.587383984375002L10.19726,16.587383984375002L10.05143,16.424883984375L10.00143,16.277383984375Q9.89476,16.094083984375,9.84143,16.104083984375002Q9.78727,16.114083984375,9.7056,16.229883984375L9.63894,16.450783984375L9.40811,16.379883984375L9.33311,16.296583984374998L9.05062,16.174083984375002L8.794789999999999,16.206583984375L8.462299999999999,16.399883984375002L8.3848,16.424883984375L8.23731,16.399883984375002L8.19481,16.424883984375L8.043980000000001,16.647383984375L7.89565,16.725783984375Q7.48983,16.751583984375,7.44733,16.751583984375Q7.35816,16.751583984375,7.31483,16.568283984375L7.31483,16.388283984375L7.15484,16.346583984375002L7.169,16.174083984375002L6.93818,16.127383984375L6.73151,16.005783984375L6.52985,15.967383984375L6.24736,16.174083984375002L6.02237,16.362383984375L5.96487,16.295783984375L6.01237,16.104083984375002L5.9557,16.014883984375L5.73904,16.024083984375L5.33489,16.038283984375L5.15156,15.902383984375L5.02989,15.902383984375L4.804069999999999,15.910783984375L4.75657,15.878283984375L4.7474,15.779883984375L4.48907,15.629883984375L4.44158,15.460783984375L4.37574,15.474983984375L4.06992,15.305783984375L4.06992,15.104083984375L4.0140899999999995,15.047483984375L3.94742,15.113283984375L3.83492,15.113283984375L3.74076,14.888283984375L3.22411,14.446583984375L3.10161,14.334183984375L2.96495,14.469983984375L2.8949499999999997,14.446583984375L2.81995,14.357483984375L2.59413,14.108283984375L2.59413,14.033283984375L2.2883,13.794183984375L2.21747,13.672483984375L2.08581,13.658283984375L2.07164,13.583283984375L2.10497,13.489183984375L2.10497,13.357483984375L2.08581,13.254183984375L2.02914,13.108283984375L2.04831,13.019183984375L2.15164,13.004983984375L2.25497,13.118283984375L2.45746,13.094183984375L2.49913,13.019183984375L2.49079,12.827483984375L2.35413,12.690843984375L2.36163,12.564183984375L2.40996,12.568343984375Q2.40163,12.474183984375,2.40996,12.423353984375Q2.4183,12.373353984375,2.45079,12.323353984375L2.4999599999999997,12.237523984375L2.55246,12.121693984375Q2.53329,12.040023984375,2.4108,11.987523984375Q2.28747,11.935033984375,2.30413,11.531703984375L2.0391399999999997,11.507543984375L1.6674820000000001,11.235043984375L1.564152,11.226713984375L1.484154,11.047553984375L1.540819,10.864223984375L1.5216530000000001,10.775063984374999L1.38499,10.685893984375L1.338325,10.596733984375L1.055833,10.437563984375L1.055833,10.390073984375L1.192496,10.334233984375L1.2724929999999999,10.380903984375L1.352491,10.300903984375001L1.329158,10.034243984375L1.352491,9.808413984375001L1.169162,9.625093984374999L1.0466652,9.658423984375L1,9.525923984375L1.0699977999999999,9.390093984375L1.0324988,9.263433984375L1.152496,9.155103984375L1.202495,9.108433984375L1.202495,9.005103984375001L1.3708230000000001,8.925103984375L1.540819,8.892613984375L1.690815,8.835943984375L1.813312,8.869273984374999L1.902477,8.835943984375L1.935809,8.860113984375001L1.949976,8.972603984374999L2.02914,9.005943984375001L2.21747,8.995943984375L2.4341299999999997,8.756783984375L2.87578,8.850113984375L3.10161,8.690943984375L3.75493,8.545123984375L3.79743,8.455953984375L3.85409,8.206793984375L4.03742,8.061803984375L4.09409,8.061803984375L4.09409,7.986803984375L4.10242,7.361813984375L4.13575,7.235153984375L3.95742,7.169323984375L3.94826,7.122653984375L4.13575,7.065993984375L4.62491,7.024323984375L4.6998999999999995,7.122653984375L4.8698999999999995,7.160153984375L4.9165600000000005,7.169323984375L4.98323,7.080153984375L4.89323,6.990993984375L5.25489,6.2593439843750005L5.31155,6.221013984375L5.64071,6.3810139843750004L5.78654,6.3810139843750004L5.85237,6.470173984375L6.16737,6.371843984374999L6.24736,5.850193984375L6.38403,5.761023984375L6.54319,5.7518639843749995L6.65652,5.616033984375L6.69818,5.479363984375L6.78818,5.432703984374999L6.99234,5.480203984375001L7.08401,5.480203984375001L7.02818,5.657693984374999L7.10817,5.7518639843749995L7.11734,5.8176939843749995L7.29567,5.996023984375L7.34317,6.131853984375001L7.57816,6.146013984375L7.68149,6.235183984375L7.73816,6.235183984375L7.87399,6.526843984375001L8.01065,6.878493984375L7.94065,7.090163984375L7.95399,7.169323984375L7.82732,7.385983984375L7.86066,7.554313984375L8.30231,7.742643984375L8.7773,7.812643984375L9.27062,8.150963984375L9.43061,8.207633984375L9.44061,8.296793984375L9.54394,8.512623984375L9.64727,8.794283984375L9.77894,9.029253984375Z" fill="#6A83FC" fill-opacity="0.6000000238418579"/></g><g><path d="M11.943230937500001,13.8092438125L12.0132309375,13.6492488125L11.9332309375,13.5600838125L11.919070937499999,13.4234208125L12.2023909375,13.3017578125L12.272390937499999,13.3017578125L12.3148909375,13.4050888125L12.3290609375,13.5367528125L12.4657209375,13.6309178125L12.6448809375,13.8092468125L12.7490509375,13.7434148125L12.8148809375,13.8092468125L12.8382109375,13.9875758125L12.951540937499999,14.0675748125L13.2432009375,14.0909068125L13.2907009375,14.0350758125L13.2765309375,13.9550768125L13.4465309375,13.9134128125L13.540690937499999,13.9317448125L13.5498609375,14.0350758125L13.6298609375,14.0434088125L13.9215209375,13.9875778125L13.9790109375,14.0117428125L13.9923509375,14.0909068125L14.115680937499999,14.1242398125L14.3740009375,14.2509038125L14.5206709375,14.1942378125L14.7015009375,14.2725688125L14.5865009375,14.3958978125L14.5715009375,14.5600578125L14.4865009375,14.6892278125L14.4331709375,14.7350578125L14.3690109375,14.8708878125L14.2356809375,14.9658878125L14.1798409375,15.085047812500001L14.0690109375,15.1542178125L13.915690937499999,15.3667078125L13.603190937499999,15.3433778125L13.4932009375,15.3433778125L13.4240309375,15.4050378125L13.4198709375,15.5025378125L13.4765309375,15.7008678125L13.5632009375,15.8175278125L13.644860937499999,15.8741978125L13.6956909375,15.9625278125L13.6956909375,16.0650278125L13.5732009375,15.9991878125L13.4465309375,16.1450178125L13.4465309375,16.2108478125L13.6965309375,16.3475178125L13.7523609375,16.4508478125L13.5731909375,16.5166778125L13.2998709375,16.5066778125L13.2665409375,16.3941778125L13.1632109375,16.3566878125L12.9940409375,16.4600178125L12.8807109375,16.4033478125L12.8715509375,16.2575178125L12.8148809375,16.1875178125L12.8148809375,16.1125278125L12.6548909375,16.0741878125L12.612390937499999,16.1216878125L12.6357209375,16.2341878125L12.508220937499999,16.2908478125L12.4748909375,16.3708478125L12.508220937499999,16.4691778125L12.2257309375,16.7983378125L12.2724009375,17.1833278125L12.1365709375,17.2966578125L12.0699009375,17.2258278125L11.7965809375,17.3858278125L11.6932409375,17.3291578125L11.2974209375,16.5725178125L11.1415909375,16.4600178125L11.0149309375,16.4266778125L10.9582609375,16.3233478125L11.0290909375,16.2108578125L10.9157609375,16.1216878125L10.7791009375,16.2341878125L10.6424389375,16.2575178125L10.5532739375,15.8491978125L10.5291089375,15.7500378125L10.5057759375,15.0967178125L10.3832799375,14.7675578125L10.4724449375,14.7025578125L10.2141189375,14.2275748125L9.8974609375,13.9784148125L9.9399603375,13.8325858125L9.9782922375,13.7859208125L10.4399469375,13.7192558125L10.7457729375,13.8092528125L10.924930937500001,13.7525878125L10.9957609375,13.8659178125L11.2224209375,14.0909118125L11.4007509375,14.0575788125L11.4007509375,13.9217488125L11.4482509375,13.8325838125L11.6274109375,13.7625868125L11.6932509375,13.8750838125L11.7965809375,13.8000858125L11.9432409375,13.8184178125L11.943230937500001,13.8092438125ZM16.3739509375,17.8216378125L16.463110937499998,17.7558078125L16.463110937499998,17.6199778125L16.5097809375,17.5774778125L16.6231109375,17.5866378125L16.8147709375,17.6758078125L16.8481009375,17.6099778125L16.8014409375,17.5308078125L16.8156009375,17.4741478125L16.9372709375,17.3708178125L17.1539309375,17.4274778125L17.2764209375,17.3524778125L17.365590937500002,17.4416478125L17.5822509375,17.3849778125L17.6239209375,17.4649778125L17.5580809375,17.5541478125L17.4455909375,17.7233078125L17.4455909375,17.7649678125L17.5114209375,17.8124678125L17.9622409375,17.6341378125L18.122240937500003,17.7233078125L18.1689009375,17.6758078125L18.122240937500003,17.5774778125L18.1330709375,17.512477812500002L18.4280609375,17.5774778125L18.4838909375,17.6191378125L18.5638909375,17.6108078125L18.6863909375,17.7649678125L18.8222209375,18.0607978125L18.7330509375,18.1266278125L18.653050937499998,18.2724578125L18.5830609375,18.295787812500002L18.5163909375,18.4316178125L18.2914009375,18.544117812499998L18.202230937499998,18.4974478125L18.1455709375,18.5916178125L18.1455709375,18.6241078125L17.9530709375,18.6241078125L17.8130809375,18.7132778125L17.7830809375,18.9091078125L17.6472509375,18.9691078125L17.4972509375,18.973267812499998L17.4122609375,18.8257778125L17.2630909375,18.6657778125L17.1964309375,18.7932778125L17.2664309375,18.9849378125L17.0831009375,19.0599378125L16.984770937500002,19.196597812500002L16.7922709375,19.243257812499998L16.6889409375,19.2857578125L16.4864509375,19.2857578125L16.3497809375,19.4215878125L15.9881309375,19.549087812499998L15.8098009375,19.6707478125L15.7198009375,19.7599178125L15.8898009375,20.0324078125L15.776470937500001,20.1307378125L15.640640937499999,20.1215778125L15.480640937499999,19.8299178125L15.5181409375,19.6240878125L15.5181409375,19.5257578125L15.6306409375,19.3424278125L15.776470937500001,19.3090978125L15.762300937500001,19.210767812500002L15.9123009375,19.1399378125L15.931460937499999,18.9716078125L16.1947909375,18.7699378125L16.1806209375,18.4974478125L16.3831209375,18.2391278125L16.3739509375,18.1407978125L16.4389509375,18.0466278125L16.3739509375,17.8216378125ZM20.0438609375,14.2725648125L19.8913509375,14.1475678125L19.9638609375,14.0642368125L20.0180609375,13.9042418125L20.1813609375,13.9709058125L20.2588609375,14.0775698125L20.2038609375,14.1525688125L20.0438609375,14.2725648125Z" fill="#6A83FC" fill-opacity="1"/></g><g><path d="M20.0206125,13.895082734375L19.9640125,14.065072734375L19.8890125,14.154242734375L19.7606125,14.305902734375L19.5665125,14.272572734375L19.4106125,14.178402734375L19.3156125,14.225902734375L18.9757125,14.192572734375L18.9657125,14.055072734375L18.7957125,13.941742734375L18.7390125,13.838412734375L18.8190125,13.748412734375L18.8190125,13.592582734375L19.0232125,13.568412734375L19.0315125,13.488422734375L18.9657125,13.398422734375L18.8623125,13.384252734375L18.7957125,13.497582734375L18.6257125,13.464252734375L18.5782125,13.375082734374999L18.4648125,13.308422734375L18.5023125,13.067592734375001L18.4790125,13.025932734375L18.3657125,13.044262734375L18.2848125,12.977602734375001L18.0815125,12.921762734375001L17.9682125,12.808432734375L17.7182125,12.704272734375L17.7415125,12.590942734375L17.8407125,12.548442734375L18.0248125,12.704272734375L18.0815125,12.704272734375L18.2523125,12.685102734375L18.3515125,12.605112734375L18.4882125,12.718432734375L18.5448125,12.614272734375L18.5590125,12.557612734374999L18.6732125,12.490942734375L18.7065125,12.354282734375001L18.8190125,12.330952734375L19.1032125,12.524272734375L19.3065125,12.605112734375L19.6940125,13.252592734375L19.6798125,13.318422734375L19.9406125,13.440922734375L20.0115125,13.554252734375L20.1340125,13.611752734375L20.1906125,13.725072734375L20.1106125,13.762572734375L19.9773125,13.715082734375L19.7940125,13.715082734375L19.6231125,13.658412734375L19.5565125,13.715082734375L19.7131125,13.762572734375L19.8648125,13.829242734375L20.0206125,13.895082734375ZM7.0068225,5.481968734375L7.0993125,5.481968734375L7.0434825,5.659464734375L7.1234825,5.752795734375L7.1318125,5.818627734375L7.3118125,5.996122734375L7.3584725,6.131952734375L7.5943025,6.1461197343750005L7.6976325,6.235283734375L7.7543025,6.235283734375L7.8909625,6.525272734375L8.026792499999999,6.876102734375L7.9567925,7.086922734375L7.9709625,7.1669227343749995L7.8434625,7.381922734375L7.8768025,7.551082734375L8.3184525,7.737742734375L8.7942725,7.807742734375L9.2892625,8.145232734375L9.4492525,8.201062734375L9.4575925,8.290232734375L9.5617525,8.505222734375L9.6659125,8.786052734375L9.7975825,9.020212734375L9.7225825,9.109372734375L9.7225825,9.267702734375L9.5525825,9.347702734375L9.1334325,9.516862734375L8.8601025,9.741852734375L8.6676125,9.830192734375L8.6342725,9.966022734374999L8.6909425,10.616002734375L8.5359425,10.593502734375L8.4651125,10.649332734375001L7.4243125,10.850992734375L7.2784825,10.962662734375L7.2926425,11.234322734374999L7.6084725,11.492642734375L7.5043025,11.660142734375L7.3584825,11.726802734375L7.3351425,11.805972734375L7.3684825,11.894302734375L7.4476425,11.894302734375L7.4951425,11.950972734375L7.1893125,12.053462734375L7.0101525,11.987632734375001L6.9159925,11.931802734375001L6.6901625,11.931802734375001L6.2851725,11.749302734375L6.0268425,11.749302734375L5.8235225,11.805972734375L5.5985225,11.805972734375L5.2443625,11.997632734375L4.9618725,11.964302734375L4.6793825,12.063462734375001L4.4443925,11.988462734375L4.2985625,11.861802734375L3.9219025,11.805972734375L3.6769125,11.974302734375L3.5402425,11.917632734375001L3.4269125,11.829302734375L3.1544225,11.763472734375L2.9760925,11.894302734375L2.8985925,12.104292734375Q2.7236025,12.062632734375,2.5211025,12.054292734375Q2.3177825,12.044292734375,2.3002825,11.540142734375L2.0477825000000003,11.491812734375L1.6761285,11.220152734374999L1.5727985,11.211812734375L1.4919675,11.033492734374999L1.5486325,10.850162734375001L1.5302995,10.761832734375L1.3936365,10.672662734374999L1.3461375,10.583502734375L1.0636455,10.425172734375L1.0636455,10.377672734375L1.2003085,10.321842734375L1.2803054999999999,10.368502734375L1.3603035,10.288502734375001L1.3369705,10.021842734375L1.3603035,9.796852734375001L1.1769745,9.615192734375L1.0544777,9.647692734375L1.0078125,9.516862734375L1.0778102999999999,9.381032734375001L1.0403113,9.254362734375L1.1603085,9.146032734375L1.2103075,9.100202734375L1.2103075,8.996872734375L1.3794695,8.917712734375L1.5486315,8.884372734374999L1.6994605,8.828542734375L1.8219575,8.861882734375L1.9111224999999998,8.828542734375L1.9444545,8.851872734375L1.9586215,8.964372734375L2.0386225,8.997712734375L2.2269425,8.987712734375L2.4436125,8.748552734375L2.8852625,8.842712734375L3.1119225,8.683552734375L3.7660725,8.538552734375L3.8085725,8.449392734375L3.8652325,8.201062734375L4.0485625,8.056062734375L4.1052325,8.056062734375L4.1052325,7.981072734375L4.1143925,7.358582734375L4.1477325,7.231922734375L3.9685625,7.1669227343749995L3.9594025,7.120262734375L4.1477325,7.063592734375L4.6368825000000005,7.0219327343749995L4.7118825,7.120262734375L4.8818725,7.156922734375L4.9293724999999995,7.1669227343749995L4.9952024999999995,7.077762734375L4.9060425,6.9885927343750005L5.2685325,6.258613734375L5.3243625,6.221114734375L5.6543525,6.380277734375L5.8001825,6.380277734375L5.8660225,6.469442734375L6.1818425,6.371111734375L6.2618425,5.851958734375L6.3985025,5.762793734375L6.5585025,5.752793734375L6.6709925,5.617797734375L6.7134925,5.481967934375L6.8026625,5.435302734375L7.0076525,5.481967934375L7.0068225,5.481968734375Z" fill="#6A83FC" fill-opacity="1"/></g><g><path d="M17.7373160625,12.67664875L17.7614810625,12.56497875L17.8598120625,12.52331875L18.0431400625,12.67664875L18.0989710625,12.67664875L18.2681340625,12.65747875L18.3664640625,12.57830875L18.5031240625,12.69080875L18.5589540625,12.58831875L18.5731240625,12.53247875L18.6856240625,12.466648750000001L18.7189540625,12.33248875L18.8314540625,12.30915875L19.1456140625,11.78333875L19.0897840625,11.69416875L19.1456140625,11.638338749999999L19.2122740625,11.66166875L19.3147740625,11.60583875L19.3714340625,11.48500875L19.6297640625,11.24751875L19.8314240625,11.18251875L19.9255940625,11.09418875L19.9014240625,10.90335875L19.7655940625,10.88918875L19.4606040625,10.92668875L19.2489440625,10.82419575L19.1222840625,10.84752775L18.8081240625,11.24751875L18.7189540625,11.30334875L18.5172940625,11.21501875L18.5031240625,11.11251875L18.4606240625,10.93585875L18.3481340625,10.87086075L18.1648040625,10.91252875L18.0514730625,10.83586175L17.8831450625,11.04751875L17.7048150625,11.09418875L17.4556560625,11.31751875L17.1831631625,11.80666875L17.2539940625,11.94082875L17.2398270625,11.99665875L17.2398270625,12.06249875L17.2773260625,12.11832875L17.3664910625,12.05248875L17.5123200625,12.01999875L17.1181640625,12.453318750000001L17.1181640625,12.55580875L17.1973280625,12.57830875L17.3756570625,12.73247875L17.6573160625,12.69913875L17.7373160625,12.67664875ZM17.9048110625,10.64003175L17.7789820625,10.69002975L17.5706550625,10.63503075L17.5614880625,10.57919975L17.5531550625,10.22087575L17.6931510625,10.15671075L17.6698180625,10.09171375L17.7006510625,9.95255075L17.7156500625,9.88671875L17.7881480625,9.92421785L17.8239800625,10.04504875L17.8106470625,10.12421275L17.9639760625,10.23504175L17.9864760625,10.32337375L17.8964780625,10.38837175L17.8648120625,10.53753475L17.9048110625,10.64003175Z" fill="#6A83FC" fill-opacity="1"/></g><g><path d="M17.5807535625,10.209956328125L17.5657535625,10.098296328125L17.5324205625,10.023296328125L17.7365825625,9.939966328125L17.7524145625,9.873296328125L17.7040825625,9.687476328125001L17.6374175625,9.687476328125001L17.3707585625,9.552476328125L17.2224295625,9.696636328124999L17.1890955625,9.888296328125L17.0407670625,10.055796328125L17.0166015625,10.224126328125L17.0499347625,10.312456328125L17.2465965625,10.279956328125L17.3940925625,10.321616328125L17.4657575625,10.256626328125L17.5807535625,10.209956328125ZM19.2823715625,6.565056328124999L19.5490315625,6.5183863281250005L19.6623615625,6.724216328124999L19.8315215625,6.846716328125L19.9440215625,6.799216328125L20.0381915625,6.799216328125L20.2065115625,6.700886328125L20.3290115625,6.822546328125L20.409011562499998,6.836716328125L20.6198415625,6.757546328125001L20.7698315625,6.836716328125L20.8356615625,7.005876328125L20.9481615625,7.005876328125L21.0048215625,7.080876328125L21.1498215625,7.239206328125L21.2064915625,7.206706328125L21.1831515625,7.005876328125L21.2631515625,6.949216328125L21.3756515625,7.174206328125L21.4789815625,7.215876328125L21.5914715625,7.342536328125L21.670641562500002,7.328366328125L21.7039715625,7.272536328125L21.8823015625,7.070876328125L21.962301562500002,7.127546328125L22.0181315625,7.047546328125L22.0748015625,7.150876328125L22.2439615625,7.206706328125L22.3564615625,7.206706328125L22.4381215625,7.210876328125L22.3889615625,7.127536328125L22.3656215625,6.855876328125L22.1639615625,6.541726328125L22.2764615625,6.429226328125L22.3797915625,6.237566328125L22.7597815625,6.237566328125L22.8306115625,6.171736328125L22.807281562500002,6.026736328125001L22.8864415625,5.881736328125L22.863111562500002,5.801746328125001L22.8964415625,5.666746328125L22.8864415625,4.968436328125L22.9997715625,4.743436328125L22.8722815625,4.598446328125L22.8964415625,4.509276328125L22.8397815625,4.430116328125L22.6939515625,4.485946328125L22.5256215625,4.677606328125L22.3564615625,4.757606328125L22.1873015625,4.991766328125L21.7698115625,5.136756328125L21.5773115625,4.991766328125L21.6006515625,4.902596328125L21.5023215625,4.757606328125L21.4548215625,4.607606328125L21.295651562499998,4.599276328125L21.0139915625,4.4534463281250005L20.901501562500002,4.495106328125L20.7698315625,4.430116328125L20.5781715625,4.462606328125L20.409011562499998,4.406776328125L20.3056815625,4.260946328125L20.2065215625,4.148446328125L20.1690215625,4.036786328125L20.0381915625,3.900956328125L19.9581915625,3.779294328125L19.7748615625,3.530967328125L19.7190315625,3.385138328125L19.5165415625,3.127644328125L19.4607115625,2.991815328125L19.2023815625,2.865984928125L19.0332215625,2.921817028125L18.8882215625,2.888484628125L18.5590615625,2.823486328125L18.1232415625,2.978482328125L18.0432415625,3.048480328125L18.1324115625,3.170143328125L18.0199115625,3.465135328125L18.0524115625,3.498468328125L18.2440715625,3.620131328125L18.3482315625,3.450969328125L18.5265615625,3.563466328125L18.517401562499998,3.643464328125L18.5832315625,3.844296328125L18.6957315625,3.970956328125L18.9207215625,4.004286328125L18.9865515625,3.9334563281249997L19.1223815625,3.9142863281249998L19.3807115625,3.699296328125L19.7190315625,3.9476263281249997L19.605701562500002,4.405946328125L19.6298715625,4.734266328125L19.6298715625,4.935926328124999L19.5398715625,4.982596328125L19.5315415625,5.507576328124999L19.5073715625,5.488416328125L19.418211562499998,5.375916328125L19.3715415625,5.375916328125L19.3482115625,5.417586328125L19.0665515625,5.834236328125L18.9298915625,6.012566328125001L18.9440515625,6.069236328125L19.2257115625,6.260896328125L19.3807115625,6.219226328125L19.404041562499998,6.260896328125L19.3707115625,6.307556328125L19.2257115625,6.373386328125L19.2115515625,6.500056328125L19.2823715625,6.565056328124999Z" fill="#6A83FC" fill-opacity="1"/></g><g><path d="M17.7193816875,9.9541015625L17.6877156875,10.0915985625L17.7110486875,10.1565965625L17.5652198875,10.2215935625L17.5510534875,10.1107635625L17.5185546875,10.0357656625L17.7193816875,9.9541015625L17.7193816875,9.9541015625Z" fill="#6A83FC" fill-opacity="1"/></g></g></g></svg>