<svg xmlns="http://www.w3.org/2000/svg" xmlns:xlink="http://www.w3.org/1999/xlink" fill="none" version="1.1" width="24" height="24" viewBox="0 0 24 24"><defs><clipPath id="master_svg0_565_901"><rect x="0" y="0" width="24" height="24" rx="0"/></clipPath></defs><g clip-path="url(#master_svg0_565_901)"><g><g style="opacity:0.30000001192092896;"><path d="M20.900845625,17.34554128125L20.771665625,18.10145828125L20.704995625,18.34148828125L20.704995625,18.54317828125L20.647485625,18.59984828125L20.509135625,18.39815828125L20.361615625,18.28481828125L20.232435625,17.94643828125L20.246605625,17.64140928125L20.461635625,17.08717828125L20.714995625,16.87548828125L20.876675625,16.95049688125L20.900845625,17.34554128125ZM16.144475625,20.36671828125L15.941950625,20.71925828125L15.941950625,20.87427828125L15.538572625,21.20264828125L15.121858225,21.05762828125L15.041015625,20.76176828125L15.065184525,20.62507828125L15.290210625,20.40005828125L15.370219625,20.33421828125L15.740262625,20.26837828125L15.909447625,20.25420828125L15.966121625,20.18836828125L16.087805625,20.22170828125L16.144475625,20.36671828125Z" fill="#6A83FC" fill-opacity="1"/></g><g><path d="M9.78017,9.028659140624999L9.85101,9.036999140625L10.13271,9.084499140624999L10.9653,9.164509140625L11.092,9.107839140625L11.7787,9.187849140625L11.9054,9.333699140625L12.3763,9.478709140625L12.7847,9.502049140625001L12.818,9.591229140625L12.9072,9.638729140625L13.2131,9.446209140625001L13.8806,9.164509140625L13.9698,9.173679140625L14.544,9.117839140625L14.8966,8.962819140625001L15.1649,8.624449140625L15.3483,8.511939140625L15.48,8.375249140625L15.2775,8.079389140625L15.3483,7.821029140625L15.4942,7.676009140625L15.6158,7.731849140625L15.9875,7.811859140625L16.1809,7.699349140625L16.3826,7.426809140625L16.5659,7.403479140625L16.857599999999998,7.215959140625L16.881,7.065939140625L17.0177,6.863419140625L17.2202,6.821739140625L17.3002,6.694229140625L17.4127,6.708399140625L17.5586,6.595889140625L17.9861,6.572549140625L18.0661,6.515879140625L18.0661,6.4366991406250005L17.6952,6.050819140625L17.3894,5.938309140625L17.2293,5.975819140625L17.1402,6.121669140625L16.8343,6.098329140625L16.645899999999997,6.201669140625L16.5334,6.107499140625L16.486800000000002,5.975819140625L16.5759,5.882469140625L16.7593,5.149049140624999L16.7776,5.084049140625L16.905099999999997,5.130719140625001L17.1302,5.172389140625L17.5494,4.868189140625001L17.6052,4.769009140625L17.5352,4.656499140625L17.7186,3.980589140625L17.8169,3.834739140625L17.8736,3.731392140625L17.7752,3.473029140625L17.6477,3.4588611406250003L17.5819,3.417189140625L17.7511,3.167994140625L17.9536,3.022144140625L18.0336,3.022144140625L18.1136,2.952136140625L18.5512,2.797119140625L18.8804,2.862960340625L19.0262,2.896297440625L19.1954,2.839624440625L19.4538,2.966306140625L19.5104,3.102155140625L19.7121,3.360518140625L19.7688,3.506368140625L19.9522,3.754729140625L20.0322,3.877239140625L20.1638,4.013089140625L20.2014,4.126439140625L20.3005,4.2389491406249995L20.4039,4.383969140625L20.5731,4.4406391406250005L20.7656,4.407299140625L20.8973,4.473979140625L21.0106,4.4314691406249995L21.2923,4.576489140625L21.4523,4.586489140625L21.4998,4.7365091406249995L21.5982,4.882359140625001L21.5748,4.971539140625L21.7674,5.1165491406250005L22.1857,4.971539140625L22.3558,4.7365091406249995L22.5249,4.656499140625L22.6941,4.464809140625L22.84,4.408139140625L22.8967,4.487319140625L22.8725,4.576489140625L23,4.7223391406249995L22.8867,4.947369140625L22.8967,5.647449140625L22.8633,5.783299140625L22.8867,5.863309140625001L22.8066,6.009159140625L22.8308,6.154169140625L22.76,6.220849140625L22.3791,6.220849140625L22.2757,6.412529140625L22.1624,6.525879140624999L22.3649,6.840079140625L22.3883,7.112609140625L22.4374,7.195959140625L22.4683,7.248459140625L22.4216,7.417649140625L22.2524,7.642669140625L22.1857,7.586839140625L22.1199,7.515989140625L22.0499,7.540159140625L22.0165,7.666839140625L22.0082,7.854369140625L21.8807,7.910209140625L21.7815,8.102729140625L21.5415,8.182739140625L21.5082,8.230239140624999L21.6315,8.417759140625L21.5415,8.497769140625L21.2831,8.531109140625L21.1231,8.441099140624999L21.0573,8.464439140625L20.9114,8.882819140625L20.7514,8.981159140625L20.5822,9.173689140625001L20.3147,9.567899140625L20.178,9.601239140625001L19.7496,9.840429140625L19.4679,10.211299140625L19.2754,10.314649140625L19.2512,10.267979140625L19.3646,10.155469140625L19.3737,10.032949140625L19.2279,9.929609140625L19.3879,9.680409140624999L19.5104,9.413719140625L19.3412,9.244529140625L19.0729,9.300369140625001L18.9129,9.567899140625L18.7528,9.760419140625L18.6545,9.817099140625L18.4611,10.098789140625L18.4611,10.202139140625L18.1319,10.380489140625L18.0003,10.324649140624999L17.9069,10.389659140625L17.8736,10.539679140625001L17.9152,10.644689140625001L17.9769,10.798039140625L18.0419,10.843049140625L18.1561,10.920559140625L18.3395,10.878879140625L18.452,10.943889140625L18.4936,11.122239140625L18.5086,11.225589140625L18.7103,11.314769140625L18.8003,11.258929140625L19.1154,10.854719140625L19.2421,10.831379140625L19.4538,10.934719140625L19.7596,10.897219140625L19.8963,10.911389140625L19.9196,11.103079140625L19.8255,11.193089140625L19.6229,11.258089140625L19.3646,11.498119140625L19.3079,11.619799140625L19.2046,11.676479140625L19.1387,11.653139140625L19.082,11.708979140625L19.1387,11.798159140625L18.8237,12.329049140625L19.1054,12.521569140625L19.3079,12.601579140625L19.6938,13.245019140625L19.6796,13.310819140625L19.938,13.432519140625L20.0088,13.545019140625L20.1313,13.601719140625L20.1872,13.714219140625L20.1072,13.751719140625L19.9755,13.705019140625L19.7921,13.705019140625L19.6229,13.648319140625L19.5571,13.705019140625L19.7121,13.751719140625L19.8621,13.818419140625L20.018,13.883419140625L20.1872,13.953419140625L20.2672,14.066719140625L20.2105,14.145919140625L20.0446,14.272619140625L19.9755,14.325119140625L19.8963,14.446819140625L19.7688,14.484319140625L19.7271,14.517619140625L19.8488,14.583519140625L20.0738,14.484319140625L20.4464,14.639319140625L20.4839,14.954319140625L20.3338,14.954319140625L20.3238,15.047719140625L20.4039,15.179419140625L20.333,15.259419140625L20.413,15.386019140625L20.2905,15.531119140625L20.2347,15.461119140625L20.0513,15.926119140625L20.0238,15.991119140625L19.863,16.377019140625002L19.7688,16.329519140625003L19.7029,16.362819140625L19.6938,16.400319140625L19.783,16.498719140625L19.7596,16.851219140625L19.783,16.963719140625003L19.7596,16.997119140625L19.6563,16.972919140625002L19.5896,17.038719140625L19.6371,17.132919140625L19.5104,17.254619140625L19.5338,17.301319140625L19.4112,17.367919140625L19.4304,17.456319140625L19.3879,17.503819140624998L19.2187,17.503819140624998L19.1295,17.583819140625L19.1154,17.617119140625L19.1954,17.673019140625L19.1062,17.808819140624998L18.9929,17.954719140625002L18.9462,17.940519140625L18.8237,18.067219140625L18.7345,18.133019140625002L18.6545,18.278019140625L18.5837,18.302219140625L18.5178,18.438119140625L18.2928,18.550619140625003L18.2028,18.503919140625L18.1461,18.598119140625002L18.1461,18.630619140625L17.9536,18.630619140625L17.8136,18.719819140625L17.7836,18.916519140625L17.6477,18.976519140625L17.4952,18.976519140625L17.4127,18.832319140625L17.2635,18.672319140625L17.1968,18.799819140625L17.2668,18.991519140625L17.0835,19.067319140625L16.984299999999998,19.203219140625L16.7926,19.250719140625L16.688499999999998,19.292319140625L16.486800000000002,19.292319140625L16.350099999999998,19.429019140625L15.9875,19.555719140625L15.8092,19.677419140625L15.7192,19.766519140625L15.8892,20.039119140625L15.7758,20.137419140625L15.64,20.129119140625L15.48,19.837419140625L15.5175,19.630719140625L15.5175,19.532419140625L15.2216,19.574019140625L15.0658,19.461519140625L14.9058,19.395719140625L14.7466,19.555719140625L14.5815,19.564919140625L14.4215,19.574919140625L14.0598,19.372319140625L13.9931,19.194019140625L14.0832,19.010619140625L13.9798,18.935619140625L13.8431,18.935619140625L13.8098,18.898119140625L13.6648,18.935619140625L13.5189,18.832319140625L13.4389,18.752319140624998L13.2931,18.785619140625002L13.1897,18.935619140625L13.0672,19.034019140625L12.9405,19.058119140625L12.898,19.024819140625L12.8088,19.114019140625L12.7713,19.170619140625L12.7288,19.170619140625L12.6255,19.067319140625L12.5121,19.137319140625L12.4563,19.081519140625L12.343,19.179819140625L12.0746,19.090619140625L11.9712,19.217319140625L11.7362,19.217319140625L11.6804,19.315719140625L11.7554,19.644919140625L11.7554,19.823219140625L11.7129,19.869919140625L11.6662,19.836619140625L11.5437,19.855719140625L11.487,19.799919140625L11.4537,19.687419140625L11.4537,19.612419140625L11.3837,19.574919140625L11.1587,19.700719140625L10.97947,19.700719140625L10.85196,19.509019140625L10.87612,19.442319140625L10.68277,19.372319140625L10.57026,19.363219140625L10.52775,19.306519140625L10.59359,19.147319140625L10.60776,19.010619140625L10.69694,18.898119140625L10.61693,18.842319140625L10.43857,18.832319140625L10.40107,18.776419140625002L10.3819,18.607219140625L10.32523,18.494719140625L10.35856,18.372219140625L10.0527,18.391419140625L9.836,18.447219140625002L9.8035,18.428919140625L9.86017,18.292219140625L9.7935,18.108919140624998L9.8035,18.033919140625002L9.88351,17.963819140625L9.90685,17.818019140624997L10.33523,17.433019140625L10.36857,16.813719140625L10.34356,16.634519140625002L10.27855,16.587919140625L10.19855,16.587919140625L10.0527,16.425319140625L10.00269,16.277819140625Q9.89601,16.094519140625,9.84267,16.104519140625Q9.7885,16.114519140625,9.70682,16.230319140625L9.64015,16.451219140625L9.40929,16.380319140624998L9.33428,16.297019140625L9.05175,16.174519140625L8.79589,16.207019140625L8.46335,16.400319140625L8.38584,16.425319140625L8.23832,16.400319140625L8.195820000000001,16.425319140625L8.04497,16.647919140625L7.89662,16.726219140625Q7.49074,16.752019140625002,7.44823,16.752019140625002Q7.35906,16.752019140625002,7.31572,16.568719140625L7.31572,16.388719140625L7.1557,16.347019140625L7.16987,16.174519140625L6.93901,16.127819140625L6.73232,16.006119140625L6.53063,15.967819140625L6.2481,16.174519140625L6.02307,16.362819140625L5.96557,16.296219140625L6.01307,16.104519140625L5.9564,16.015319140625L5.73971,16.024519140625L5.33549,16.038619140625002L5.15214,15.902819140625L5.03046,15.902819140625L4.804600000000001,15.911119140625L4.75709,15.878619140625L4.74793,15.780319140625L4.48956,15.630219140625L4.44206,15.461119140625L4.37622,15.475219140625L4.0703499999999995,15.306019140625L4.0703499999999995,15.104419140625L4.01451,15.047719140625L3.94784,15.113519140625L3.83532,15.113519140625L3.74115,14.888519140625L3.22442,14.446819140625L3.10191,14.334319140625L2.96522,14.470119140625L2.89522,14.446819140625L2.8202100000000003,14.357619140625L2.59435,14.108419140625L2.59435,14.033419140625L2.28848,13.794219140625L2.2176400000000003,13.672519140625L2.08596,13.658419140625L2.07179,13.583319140625L2.10513,13.489219140625L2.10513,13.357519140625L2.08596,13.254119140625L2.02928,13.108319140625L2.04845,13.019119140625L2.1517999999999997,13.004919140625L2.25514,13.118319140625L2.4576700000000002,13.094119140625L2.49934,13.019119140625L2.491,12.827419140625L2.35432,12.690769140625L2.36182,12.564079140625L2.4101600000000003,12.568249140625Q2.40183,12.474069140625,2.4101600000000003,12.423229140625Q2.4185,12.373229140625,2.451,12.323219140625L2.50017,12.237379140625L2.55268,12.121529140625Q2.5335099999999997,12.039859140625,2.41099,11.987349140625Q2.28765,11.934849140625,2.30431,11.531469140625L2.0392799999999998,11.507299140625L1.667576,11.234769140625L1.564231,11.226429140625L1.484222,11.047239140625L1.540895,10.863889140625L1.5217260000000001,10.774709140625L1.385044,10.685539140625L1.338373,10.596359140625001L1.0558408,10.437169140624999L1.0558408,10.389669140625L1.192523,10.333829140625L1.272531,10.380499140625L1.35254,10.300489140625L1.329204,10.033799140625L1.35254,9.807939140624999L1.169186,9.624579140625L1.0466718,9.657919140625001L1,9.525409140625001L1.0700077000000001,9.389559140625L1.0325033,9.262879140625L1.152517,9.154529140625L1.202523,9.107859140625L1.202523,9.004509140625L1.370875,8.924499140624999L1.540895,8.891999140625L1.690912,8.835329140625L1.813426,8.868659140624999L1.902604,8.835329140625L1.9359410000000001,8.859499140625001L1.9501089999999999,8.972009140625001L2.02928,9.005349140625L2.2176400000000003,8.995349140624999L2.43433,8.756149140625L2.87605,8.849499140625L3.10191,8.690309140625L3.75531,8.544459140625001L3.79782,8.455279140624999L3.85449,8.206089140625L4.037850000000001,8.061069140625001L4.09452,8.061069140625001L4.09452,7.986059140625L4.10285,7.360989140625L4.13619,7.234309140625L3.95784,7.168469140625L3.94867,7.121799140625L4.13619,7.065129140625L4.6254100000000005,7.023449140625L4.700419999999999,7.121799140625L4.87044,7.159299140625L4.91711,7.168469140625L4.98379,7.079289140625L4.89378,6.990119140625L5.25549,6.258369140625L5.31216,6.220029140625L5.64136,6.380049140625L5.78721,6.380049140625L5.85305,6.469229140625L6.16809,6.370879140625L6.2481,5.849149140625L6.38478,5.759979140625L6.54397,5.750809140625L6.65731,5.614959140625L6.69898,5.478279140625L6.78899,5.4316091406249996L6.99318,5.479109140625L7.08486,5.479109140625L7.02902,5.656629140625L7.10903,5.750809140625L7.1182,5.816649140625L7.29655,5.995009140625L7.34406,6.130849140625L7.57908,6.145019140625L7.68243,6.234199140625L7.7391,6.234199140625L7.87495,6.525899140625L8.01163,6.877609140625L7.94163,7.089299140625L7.95496,7.168469140625L7.82828,7.385159140625L7.86162,7.553519140625L8.30334,7.741869140625L8.77839,7.811879140625L9.27178,8.150249140625L9.4318,8.206919140625L9.4418,8.296099140625L9.54514,8.511959140624999L9.64849,8.793659140625L9.78017,9.028659140624999Z" fill="#6A83FC" fill-opacity="0.6000000238418579"/></g><g><path d="M18.864579687499997,12.095669375C18.864579687499997,13.180799375,17.9849796875,14.060469375,16.8997996875,14.060469375C15.8146696875,14.060469375,14.9349896875,13.180799375,14.9349896875,12.095669375C14.9349896875,11.010533375,15.8146696875,10.130859375,16.8997996875,10.130859375C17.9849796875,10.130859375,18.864579687499997,11.010533375,18.864579687499997,12.095669375ZM13.939049687499999,15.618569375C13.9551596875,16.172219375,13.5107296875,16.629769375000002,12.9568496875,16.629769375000002C12.4029696875,16.629769375000002,11.9585396875,16.172219375,11.9746596875,15.618569375C11.9901196875,15.087249374999999,12.4252996875,14.664549375,12.9568496875,14.664549375C13.4883996875,14.664549375,13.9235796875,15.087249374999999,13.939049687499999,15.618569375ZM9.0943296875,10.786351375C9.0943296875,11.148139375,8.8010396875,11.441429375,8.4392546875,11.441429375C8.0774666875,11.441429375,7.7841796875,11.148139375,7.7841796875,10.786351375C7.7841796875,10.424564375,8.0774666875,10.13127745,8.4392546875,10.13127745C8.8010396875,10.13127745,9.0943296875,10.424564375,9.0943296875,10.786351375Z" fill="#6A83FC" fill-opacity="1"/></g></g></g></svg>