<?xml version="1.0" encoding="utf-8"?>
<!-- Generator: Adobe Illustrator 16.0.0, SVG Export Plug-In . SVG Version: 6.00 Build 0)  -->
<!DOCTYPE svg PUBLIC "-//W3C//DTD SVG 1.1//EN" "http://www.w3.org/Graphics/SVG/1.1/DTD/svg11.dtd">
<svg version="1.1" id="图层_1" xmlns="http://www.w3.org/2000/svg" xmlns:xlink="http://www.w3.org/1999/xlink" x="0px" y="0px"
	 width="24px" height="24px" viewBox="-1 -1 24 24" enable-background="new -1 -1 24 24" xml:space="preserve">
<path fill="#6A83FC" d="M21.04,15.618l-2.655-1.54C18.779,13.13,19,12.091,19,11c0-4.09-3.07-7.457-7.032-7.936v-3.073
	c6.009,0.5,10.033,5.242,10.033,11.005C22.001,12.637,21.682,14.217,21.04,15.618z M3,11c0,4.066,3.037,7.417,6.965,7.926v3.075
	c-5.007-0.5-9.974-5.242-9.974-11.005c0-5.763,4.967-10.505,9.974-11.005v3.083C6.037,3.583,3,6.933,3,11z M17.367,15.829
	l2.591,1.528c-1.801,2.582-4.985,4.344-7.99,4.644v-3.065C14.169,18.67,16.09,17.51,17.367,15.829z"/>
</svg>
