<svg xmlns="http://www.w3.org/2000/svg" xmlns:xlink="http://www.w3.org/1999/xlink" fill="none" version="1.1" width="24" height="24" viewBox="0 0 24 24"><defs><clipPath id="master_svg0_772_934"><rect x="0" y="0" width="24" height="24" rx="0"/></clipPath></defs><g clip-path="url(#master_svg0_772_934)"><g><path d="M11,1.0455654214537475Q10.74667,1.0686907966537476,10.49469,1.1035017966537475Q10.2427,1.1383126966537476,9.99259,1.1847347966537476Q9.74249,1.2311567966537476,9.49479,1.2890907966537475Q9.2471,1.3470247966537476,9.00235,1.4163467966537475Q8.75759,1.4856687966537476,8.51631,1.5662307966537474Q8.27502,1.6467917966537475,8.03772,1.7384207966537475Q7.80042,1.8300507966537476,7.5676,1.9325517966537475Q7.33479,2.0350527966537477,7.10696,2.1482087966537478Q6.87913,2.261358796653748,6.65678,2.3849187966537473Q6.43443,2.5084887966537472,6.21802,2.6421987966537475Q6.00162,2.7759087966537477,5.79163,2.9194787966537477Q5.58164,3.0630487966537476,5.37851,3.2161787966537476Q5.17538,3.3692987966537475,4.97955,3.5316487966537475Q4.78371,3.6939987966537475,4.59559,3.8652287966537475Q4.40747,4.036458796653747,4.22747,4.216198796653748Q4.04746,4.395948796653748,3.87596,4.583818796653747Q3.70446,4.771688796653748,3.54182,4.967288796653747Q3.37919,5.162888796653748,3.22577,5.365798796653747Q3.07235,5.568698796653748,2.92848,5.778488796653748Q2.7846,5.988268796653747,2.6505799999999997,6.204478796653747Q2.51655,6.420688796653748,2.39267,6.642858796653748Q2.26878,6.865028796653748,2.1553,7.092698796653748Q2.04181,7.320358796653748,1.938974,7.553018796653747Q1.836136,7.785688796653748,1.744162,8.022858796653747Q1.652189,8.260028796653748,1.571277,8.501198796653748Q1.490366,8.742368796653746,1.4206889999999999,8.987018796653746Q1.3510119999999999,9.231668796653748,1.292719,9.479278796653748Q1.234426,9.726888796653748,1.187641,9.976928796653748Q1.140856,10.226968796653747,1.10568,10.478898796653748Q1.0705035,10.730838796653748,1.0470107,10.984128796653748Q1.0235179,11.237448796653748,1.011759,11.491548796653747Q1,11.745648796653748,1,12.000048796653747Q1,12.270048796653748,1.01325,12.539748796653747Q1.0265,12.809448796653747,1.052968,13.078248796653748Q1.079436,13.346948796653747,1.1190579999999999,13.614048796653748Q1.158681,13.881148796653747,1.211362,14.146048796653748Q1.264043,14.410848796653747,1.329656,14.672748796653748Q1.3952689999999999,14.934748796653748,1.473656,15.193148796653748Q1.5520429999999998,15.451548796653748,1.6430150000000001,15.705848796653747Q1.733987,15.960048796653748,1.8373249999999999,16.20954879665375Q1.940663,16.459048796653747,2.05612,16.70314879665375Q2.17157,16.947248796653746,2.29887,17.18534879665375Q2.4261600000000003,17.423548796653748,2.56499,17.655148796653748Q2.70381,17.886748796653748,2.8538300000000003,18.111248796653747Q3.00386,18.335848796653746,3.16472,18.55274879665375Q3.32558,18.769648796653748,3.49688,18.978348796653748Q3.66819,19.187048796653748,3.84954,19.387148796653747Q4.03088,19.587248796653746,4.221830000000001,19.77814879665375Q4.41277,19.969148796653748,4.61285,20.150448796653748Q4.81293,20.33184879665375,5.02167,20.503148796653747Q5.23041,20.67444879665375,5.44731,20.835248796653747Q5.6642,20.99614879665375,5.88873,21.146148796653748Q6.11325,21.296248796653746,6.34487,21.43504879665375Q6.57649,21.57384879665375,6.81464,21.701148796653747Q7.05279,21.82844879665375,7.29689,21.943848796653747Q7.541,22.059348796653747,7.79048,22.162648796653748Q8.03996,22.26604879665375,8.29421,22.357048796653746Q8.54846,22.447948796653748,8.80687,22.526348796653746Q9.06527,22.604748796653748,9.32722,22.670348796653748Q9.58916,22.735948796653748,9.854,22.788648796653746Q10.11885,22.841348796653747,10.38596,22.880948796653747Q10.65308,22.920548796653748,10.92181,22.947048796653746Q11.1905,22.97354879665375,11.4603,22.986748796653746Q11.73,23.000048796653747,12,23.000048796653747Q13.1816,23.000048796653747,14.3363,22.749048796653746Q15.491,22.498048796653748,16.5661,22.007548796653747L12.9183,16.914948796653746Q12.4631,17.000048796653747,12,17.000048796653747Q11.8773,17.000048796653747,11.7547,16.993948796653747Q11.6321,16.987948796653747,11.5099,16.975948796653746Q11.3878,16.963948796653746,11.2663,16.94584879665375Q11.1449,16.92784879665375,11.0245,16.903948796653747Q10.90416,16.87994879665375,10.7851,16.850148796653748Q10.66603,16.820348796653747,10.54858,16.784748796653748Q10.43112,16.749048796653746,10.31555,16.707748796653746Q10.19998,16.666348796653747,10.08658,16.61944879665375Q9.97318,16.572448796653745,9.86222,16.519948796653747Q9.75126,16.46744879665375,9.64302,16.409648796653748Q9.53477,16.351748796653748,9.42948,16.288648796653746Q9.3242,16.225548796653747,9.22215,16.15734879665375Q9.12009,16.089148796653745,9.0215,16.01604879665375Q8.92291,15.942948796653747,8.82803,15.865048796653747Q8.73315,15.787248796653747,8.642199999999999,15.704748796653748Q8.55126,15.622348796653748,8.46447,15.535548796653748Q8.37767,15.448748796653748,8.29524,15.357848796653748Q8.212810000000001,15.266848796653747,8.13495,15.171948796653748Q8.05708,15.077148796653747,7.98396,14.978548796653747Q7.91084,14.879948796653748,7.84265,14.777848796653748Q7.77446,14.675848796653748,7.71136,14.570548796653748Q7.64825,14.465248796653748,7.59039,14.357048796653748Q7.53253,14.248748796653748,7.48005,14.137748796653748Q7.42757,14.026848796653747,7.3806,13.913448796653748Q7.33363,13.800048796653748,7.29228,13.684448796653747Q7.25093,13.568848796653748,7.2153,13.451448796653748Q7.17967,13.333948796653747,7.14984,13.214948796653747Q7.12002,13.095848796653748,7.09607,12.975448796653748Q7.07213,12.855048796653747,7.05412,12.733648796653748Q7.03611,12.612248796653748,7.02408,12.490148796653747Q7.01204,12.367948796653748,7.00602,12.245348796653747Q7,12.122748796653747,7,12.000048796653747Q7,11.785948796653747,7.0183,11.572548796653747Q7.03661,11.359248796653748,7.07308,11.148248796653748Q7.10955,10.937318796653747,7.16392,10.730228796653748Q7.2183,10.523138796653747,7.29017,10.321458796653747Q7.36205,10.119778796653748,7.45091,9.924988796653748Q7.53976,9.730188796653747,7.64494,9.543698796653748Q7.75013,9.357208796653747,7.87087,9.180398796653748Q7.9916,9.003588796653748,8.12702,8.837738796653747Q8.26243,8.671888796653747,8.41152,8.518228796653748Q8.56062,8.364568796653748,8.7223,8.224208796653748Q8.883980000000001,8.083858796653747,9.05707,7.957838796653747Q9.23017,7.831818796653748,9.41339,7.721058796653748Q9.59663,7.610298796653748,9.78865,7.515608796653748Q9.98068,7.420908796653747,10.1801,7.342978796653748Q10.37952,7.265048796653748,10.58487,7.204458796653747Q10.79022,7.143858796653747,11,7.101038796653747L11,1.0455654214537475ZM13,7.101038796653747Q13.2098,7.143858796653747,13.4151,7.204458796653747Q13.6205,7.265048796653748,13.8199,7.342978796653748Q14.0193,7.420908796653747,14.2113,7.515608796653748Q14.4034,7.610298796653748,14.5866,7.721058796653748Q14.7698,7.831818796653748,14.9429,7.957838796653747Q15.116,8.083858796653747,15.2777,8.224208796653748Q15.4394,8.364568796653748,15.5885,8.518228796653748Q15.7376,8.671888796653747,15.873,8.837738796653747Q16.0084,9.003588796653748,16.1291,9.180398796653748Q16.2499,9.357208796653747,16.3551,9.543698796653748Q16.4602,9.730188796653747,16.5491,9.924988796653748Q16.637900000000002,10.119788796653747,16.7098,10.321468796653747Q16.7817,10.523138796653747,16.836100000000002,10.730228796653748Q16.8904,10.937318796653747,16.9269,11.148248796653748Q16.9634,11.359248796653748,16.9817,11.572548796653747Q17,11.785948796653747,17,12.000048796653747Q17,12.304248796653747,16.9631,12.606248796653748Q16.9262,12.908248796653748,16.853,13.203548796653747Q16.7798,13.498748796653748,16.671300000000002,13.783048796653748Q16.5628,14.067248796653747,16.4207,14.336248796653747Q16.2785,14.605148796653747,16.104799999999997,14.854948796653748Q15.9311,15.104748796653748,15.7284,15.331548796653747Q15.5257,15.558448796653748,15.2969,15.759048796653747Q15.0682,15.959648796653747,14.8169,16.131048796653747L18.3112,21.009348796653747Q18.5815,20.820048796653747,18.8399,20.614848796653746Q19.0984,20.409648796653748,19.3441,20.189348796653746Q19.5898,19.96894879665375,19.8218,19.734348796653748Q20.0538,19.499648796653748,20.2714,19.251548796653747Q20.4889,19.003348796653746,20.6912,18.742648796653747Q20.8935,18.481948796653747,21.0798,18.20954879665375Q21.2661,17.937148796653748,21.4357,17.654048796653747Q21.6053,17.370948796653746,21.7576,17.078248796653746Q21.91,16.78554879665375,22.0445,16.48414879665375Q22.179,16.182848796653747,22.2953,15.873948796653748Q22.4115,15.565148796653748,22.509,15.249848796653747Q22.6065,14.934548796653747,22.6849,14.614048796653748Q22.7633,14.293448796653747,22.8224,13.968748796653747Q22.8814,13.644148796653747,22.9209,13.316448796653747Q22.9604,12.988848796653748,22.9802,12.659448796653747Q23,12.330048796653747,23,12.000048796653747Q23,11.745648796653748,22.9882,11.491548796653747Q22.9765,11.237448796653748,22.953,10.984128796653748Q22.9295,10.730838796653748,22.8943,10.478898796653748Q22.8591,10.226968796653747,22.8124,9.976928796653748Q22.7656,9.726888796653748,22.7073,9.479278796653748Q22.649,9.231668796653748,22.5793,8.987018796653746Q22.5096,8.742368796653746,22.4287,8.501198796653748Q22.3478,8.260028796653748,22.2558,8.022858796653747Q22.1639,7.785688796653748,22.061,7.553018796653747Q21.9582,7.320358796653748,21.8447,7.092698796653748Q21.7312,6.865028796653748,21.6073,6.642858796653748Q21.4834,6.420688796653748,21.3494,6.204478796653747Q21.2154,5.988268796653747,21.0715,5.778478796653747Q20.9276,5.568698796653748,20.7742,5.365798796653747Q20.6208,5.162888796653748,20.4582,4.967288796653747Q20.2955,4.771688796653748,20.124,4.583818796653747Q19.9525,4.395948796653748,19.7725,4.216198796653748Q19.5925,4.036458796653747,19.4044,3.8652287966537475Q19.2163,3.6939987966537475,19.0205,3.5316487966537475Q18.8246,3.3692987966537475,18.6215,3.2161787966537476Q18.4184,3.0630487966537476,18.2084,2.9194787966537477Q17.9984,2.7759087966537477,17.782,2.6421987966537475Q17.5656,2.5084887966537472,17.3432,2.3849187966537473Q17.1209,2.261358796653748,16.893,2.1482087966537478Q16.6652,2.0350527966537477,16.4324,1.9325517966537475Q16.1996,1.8300507966537476,15.9623,1.7384207966537475Q15.725,1.6467917966537475,15.4837,1.5662297966537475Q15.2424,1.4856687966537476,14.9977,1.4163467966537475Q14.7529,1.3470247966537476,14.5052,1.2890907966537475Q14.2575,1.2311567966537476,14.0074,1.1847347966537476Q13.7573,1.1383126966537476,13.5053,1.1035017966537475Q13.2533,1.0686907966537476,13,1.0455654214537475L13,7.101038796653747Z" fill-rule="evenodd" fill="#6A83FC" fill-opacity="1"/></g></g></svg>