<svg xmlns="http://www.w3.org/2000/svg" xmlns:xlink="http://www.w3.org/1999/xlink" fill="none" version="1.1" width="24" height="24" viewBox="0 0 24 24"><defs><clipPath id="master_svg0_609_777"><rect x="0" y="0" width="24" height="24" rx="0"/></clipPath></defs><g clip-path="url(#master_svg0_609_777)"><g><g style="opacity:0.30000001192092896;"><path d="M11.8042,8.458569765625C6.81504,8.458569765625,2.6976,12.646089765625,2.6976,17.902109765625L0,17.902109765625C0,11.236809765625,5.24448,5.760009765625,11.8042,5.760009765625C18.3648,5.760009765625,23.6102,11.236809765625,23.6102,17.902109765625L20.9117,17.902109765625C20.9117,12.646089765625,16.7933,8.458569765625,11.8042,8.458569765625Z" fill="#6A83FC" fill-opacity="1"/></g><g><path d="M11.8042,8.458569765625C6.81504,8.458569765625,2.6976,12.646089765625,2.6976,17.902109765625L0,17.902109765625C0,11.236809765625,5.24448,5.760009765625,11.8042,5.760009765625C15.0077,5.760009765625,17.9078,7.073289765625,20.0275,9.190089765625L18.121,11.099529765625C16.4774,9.457929765625,14.2522,8.458569765625,11.8042,8.458569765625Z" fill="#6A83FC" fill-opacity="1"/></g><g><path d="M8.47973975,17.902791328124998L9.687418749999999,13.745993328125L8.93093875,13.745993328125L8.93093875,14.299911328125L8.32421875,14.299911328125L8.32421875,13.099913328125L10.37477875,13.099913328125L10.37477875,13.787273328125L9.20837875,17.902791328124998L8.47877775,17.902791328124998L8.47973975,17.902791328124998ZM12.88517875,13.098953828125L12.88517875,13.746953328125L11.52197875,13.746953328125L11.52197875,15.041991328125C11.591738750000001,14.974451328125,11.67431875,14.921571328125,11.76485875,14.886471328125C11.86909875,14.840391328125,11.98209875,14.817461328125,12.096058750000001,14.819271328125C12.32933875,14.819271328125,12.51845875,14.891271328125,12.662458749999999,15.035271328124999C12.81125875,15.174471328125,12.88517875,15.385671328125,12.88517875,15.668871328125L12.88517875,16.911111328125C12.88517875,17.072391328125,12.856378750000001,17.216391328125,12.79685875,17.343111328124998C12.69378875,17.589081328125,12.49368875,17.781541328125,12.24389875,17.874951328125C11.99305875,17.964301328125,11.71905875,17.964301328125,11.46821875,17.874951328125C11.22205875,17.775351328124998,11.02393875,17.584441328125,10.91525875,17.342151328125C10.85890875,17.205221328125,10.831138750000001,17.058211328125,10.83365875,16.910151328125L10.83365875,16.708551328125L11.52197875,16.708551328125L11.52197875,16.883271328125C11.52197875,17.000391328125,11.55365875,17.092551328125,11.61701875,17.159751328125C11.68421875,17.223111328125,11.76965875,17.254791328125002,11.87333875,17.254791328125002C11.97701875,17.254791328125002,12.05573875,17.223111328125,12.10949875,17.159751328125C12.17145875,17.086631328125,12.202758750000001,16.992381328125,12.19685875,16.896711328125L12.19685875,15.771591328125C12.19868875,15.681411328125,12.16487875,15.594141328125,12.10277875,15.528711328125C12.045478750000001,15.461591328125,11.96056875,15.424441328124999,11.87237875,15.427911328124999C11.82104875,15.426381328125,11.77016875,15.437941328125,11.72453875,15.461511328124999C11.687088750000001,15.477511328125,11.65290875,15.500291328125,11.62373875,15.528711328125C11.59781875,15.553601328125,11.57695875,15.583261328125,11.56229875,15.616071328124999C11.54848875,15.640831328125,11.53504875,15.665791328125,11.52197875,15.690951328125L10.91525875,15.690951328125L10.91525875,13.099913328125L12.88517875,13.098953828125L12.88517875,13.098953828125ZM13.749178749999999,14.158791328125C13.792568750000001,14.159461328125,13.83429875,14.142081328125,13.86437875,14.110791328125C13.89876875,14.077301328125,13.91786875,14.031121328125,13.91717875,13.983115328125L13.91717875,13.638476328125C13.91843875,13.592104328125,13.89867875,13.547648328125,13.863418750000001,13.517516328125C13.83515875,13.483047328125,13.79278875,13.463271328125,13.74821875,13.463756328125C13.70223875,13.464368328125,13.65852875,13.483797328125,13.62725875,13.517516328125C13.59562875,13.549664328125,13.57861875,13.593406328125,13.58021875,13.638476328125L13.58021875,13.983115328125C13.58021875,14.032075328125,13.59557875,14.075271328125,13.62821875,14.110791328125C13.66373875,14.142471328125,13.70405875,14.158791328125,13.749178749999999,14.158791328125ZM13.749178749999999,14.562951328125C13.59660875,14.570981328125,13.44677875,14.520121328125,13.33061875,14.420871328125C13.226968750000001,14.326121328125,13.17011875,14.190661328125,13.17509875,14.050313328125L13.17509875,13.611592328124999C13.17509875,13.440713328125,13.22693875,13.306311328125,13.33061875,13.207433328125C13.44484875,13.104236428125,13.59543875,13.050703738125,13.749178749999999,13.058632202125C13.92389875,13.058632202125,14.064058750000001,13.108552228125,14.166778749999999,13.207433328125C14.27339875,13.314126328125,14.32988875,13.460949328125,14.32229875,13.611592328124999L14.32229875,14.050313328125C14.32229875,14.203911328125,14.27045875,14.326791328125,14.166778749999999,14.421831328125C14.05071875,14.520501328125,13.901298749999999,14.570991328125,13.749178749999999,14.562951328125ZM14.68709875,17.362311328125C14.68709875,17.412231328125,14.70245875,17.454471328125,14.73413875,17.490951328125C14.76965875,17.522631328125,14.81093875,17.537991328125,14.85509875,17.537991328125C14.89848875,17.538661328125002,14.94021875,17.521281328125,14.970298750000001,17.489991328125C15.00504875,17.456661328125,15.02449875,17.410471328125,15.02405875,17.362311328125L15.02405875,17.018631328125C15.02561875,16.971931328125,15.00582875,16.927061328125,14.970298750000001,16.896711328125C14.94203875,16.862241328125002,14.89965875,16.842471328125,14.85509875,16.842951328125C14.80911875,16.843561328125,14.76539875,16.862991328125,14.73413875,16.896711328125C14.701908750000001,16.928931328125,14.684518749999999,16.973091328125,14.68613875,17.018631328125L14.68709875,17.362311328125L14.68709875,17.362311328125ZM14.85509875,17.943111328125C14.702528749999999,17.951141328125,14.552698750000001,17.900281328125,14.43653875,17.801031328125C14.33323875,17.706101328125,14.27674875,17.570671328125,14.28197875,17.430471328125L14.28197875,16.991751328124998C14.28197875,16.820871328125,14.333818749999999,16.685511328125,14.43749875,16.586631328125C14.55164875,16.484021328125,14.701818750000001,16.430861328125,14.85509875,16.438791328125C15.03077875,16.438791328125,15.16997875,16.487751328125,15.27365875,16.586631328125C15.380178749999999,16.693721328125,15.43633875,16.840931328125,15.42821875,16.991751328124998L15.42821875,17.430471328125C15.42821875,17.583111328125,15.37733875,17.706951328125,15.27365875,17.801031328125C15.15749875,17.900281328125,15.00766875,17.951141328125,14.85509875,17.943111328125ZM13.25669875,17.901831328125L14.902138749999999,13.098953828125L15.34757875,13.098953828125L13.70213875,17.901831328125L13.25669875,17.901831328125Z" fill="#6A83FC" fill-opacity="1"/></g></g></g></svg>