<svg xmlns="http://www.w3.org/2000/svg" xmlns:xlink="http://www.w3.org/1999/xlink" fill="none" version="1.1" width="24" height="24" viewBox="0 0 24 24"><defs><clipPath id="master_svg0_609_791"><rect x="0" y="0" width="24" height="24" rx="0"/></clipPath></defs><g clip-path="url(#master_svg0_609_791)"><g style="opacity:0.30000001192092896;"><path d="M12,2.48291C6.74204,2.48034,2.47826,6.74204,2.47826,12C2.47826,17.258,6.74204,21.5197,12,21.5171C17.2549,21.5153,21.5138,17.2549,21.5138,12C21.5138,6.74514,17.2549,2.48472,12,2.48291ZM0,12C0,5.37273,5.37273,0,12,0C18.6273,0,24,5.37273,24,12C24,18.6273,18.6273,24,12,24C5.37273,24,0,18.6273,0,12Z" fill="#6A83FC" fill-opacity="1"/></g><g><path d="M12,2.48291C17.2561,2.48291,21.5171,6.74386,21.5171,12C21.5171,17.2561,17.2561,21.5171,12,21.5171C6.74386,21.5171,2.48291,17.2561,2.48291,12L0,12C0,18.6273,5.37273,24,12,24C18.6273,24,24,18.6273,24,12C24,5.37273,18.6273,0,12,0L12,2.48291Z" fill="#6A83FC" fill-opacity="1"/></g><g><path d="M7.82544675,14.6118325L9.29271875,9.5631045L8.37417175,9.5631045L8.37417175,10.2351025L7.63671875,10.2351025L7.63671875,8.7765586L10.12835875,8.7765586L10.12835875,9.6121955L8.71017875,14.6118325L7.82544675,14.6118325ZM13.17744875,8.7765607L13.17744875,9.5631065L11.52035875,9.5631065L11.52035875,11.137292500000001C11.60497875,11.0553825,11.70511875,10.9912125,11.814898750000001,10.9485625C11.94160875,10.8925625,12.07892875,10.8646525,12.217448749999999,10.8667425C12.50107875,10.8667425,12.73016875,10.954012500000001,12.90471875,11.128562500000001C13.08580875,11.2976525,13.17635875,11.554012499999999,13.17635875,11.8987425L13.17635875,13.4074725C13.17635875,13.6038325,13.140348750000001,13.7783825,13.06944875,13.9311025C12.94454875,14.2306425,12.70132875,14.465182500000001,12.397448749999999,14.579102500000001C12.092678750000001,14.6878925,11.75966875,14.6878925,11.45489875,14.579102500000001C11.15537875,14.4583625,10.91444875,14.2260425,10.782898750000001,13.9311025C10.717448749999999,13.7783825,10.68471875,13.6038325,10.68471875,13.4074725L10.68471875,13.1609225L11.52035875,13.1609225L11.52035875,13.3747425C11.52035875,13.5165625,11.55853875,13.6278325,11.63489875,13.7107425C11.71780875,13.7871025,11.82035875,13.8252825,11.946898749999999,13.8252825C12.07235875,13.8252825,12.16835875,13.7871025,12.23380875,13.7107425C12.309358750000001,13.6219825,12.34765875,13.5074525,12.34071875,13.391102499999999L12.34071875,12.0220125C12.34227875,11.9124725,12.30075875,11.8066925,12.22507875,11.727472500000001C12.155888749999999,11.6462625,12.053538750000001,11.6009125,11.946898749999999,11.6041925C11.884438750000001,11.6021325,11.82248875,11.6160225,11.76689875,11.6445625C11.72103875,11.6643325,11.67923875,11.6924425,11.643628750000001,11.727472500000001C11.61240875,11.7577125,11.58722875,11.793632500000001,11.56943875,11.8332925C11.55266875,11.8632425,11.53629875,11.8934325,11.52034875,11.9238325L10.782898750000001,11.9238325L10.782898750000001,8.7765607L13.176348749999999,8.7765607L13.17744875,8.7765607ZM14.225808749999999,10.0638325C14.28144875,10.0638325,14.32835875,10.0442025,14.36653875,10.0060125C14.41017875,9.9623825,14.43198875,9.9100125,14.43198875,9.8500125L14.43198875,9.4321995C14.43198875,9.3721985,14.41016875,9.3231075,14.36653875,9.2849255C14.33236875,9.2430095,14.28097875,9.2189205,14.22689875,9.2194725C14.17235875,9.2194725,14.123268750000001,9.2412905,14.079628750000001,9.2849255C14.04089875,9.3239585,14.01997875,9.3772405,14.02180875,9.4321995L14.02180875,9.8500125C14.020848749999999,9.9074225,14.04148875,9.9630925,14.079628750000001,10.0060125C14.119758749999999,10.0430325,14.17230875,10.0636625,14.225808749999999,10.0638325L14.225808749999999,10.0638325ZM14.225808749999999,10.5547425C14.01417875,10.5547425,13.843988750000001,10.4980125,13.71853875,10.3834725C13.59223875,10.2680325,13.523198749999999,10.1028125,13.52980875,9.9318325L13.52980875,9.3994705C13.52980875,9.1921975,13.59308875,9.0285615,13.71853875,8.9085615C13.85724875,8.7831379,14.040128750000001,8.71799192,14.22689875,8.727469704C14.43962875,8.727469704,14.608718750000001,8.78747,14.73526875,8.9074705C14.86071875,9.0274715,14.92289875,9.1911075,14.92289875,9.3994705L14.92289875,9.9318325C14.92289875,10.1172925,14.86071875,10.2678325,14.73526875,10.3834725C14.608718750000001,10.4980125,14.44071875,10.5547425,14.225808749999999,10.5547425L14.225808749999999,10.5547425ZM15.36580875,13.9562025C15.36485875,14.013602500000001,15.38548875,14.0692825,15.423628749999999,14.1122025C15.463918750000001,14.1488225,15.51644875,14.1690525,15.57089875,14.1689225C15.62544875,14.1689225,15.67235875,14.1503825,15.71053875,14.1122025C15.75417875,14.068562499999999,15.77598875,14.0162025,15.77598875,13.9562025L15.77598875,13.5383825C15.77598875,13.4783825,15.75416875,13.429292499999999,15.71053875,13.3911125C15.67626875,13.3493225,15.62493875,13.325262500000001,15.57089875,13.3256525C15.51635875,13.3256525,15.467268749999999,13.3474725,15.423628749999999,13.3911125C15.38489875,13.430142499999999,15.363978750000001,13.4834225,15.36580875,13.5383825L15.36580875,13.9562025ZM15.57089875,14.6609225C15.35817875,14.6609225,15.18907875,14.6031125,15.06253875,14.4885625C14.93653875,14.373362499999999,14.86752875,14.2086225,14.87380875,14.0380125L14.87380875,13.5056525C14.87380875,13.298382499999999,14.937088750000001,13.1347425,15.06253875,13.0147425C15.201248750000001,12.889322499999999,15.38412875,12.8241725,15.57089875,12.8336525C15.78362875,12.8336525,15.95271875,12.8936525,16.07926875,13.0136525C16.204718749999998,13.1336525,16.26689875,13.2972825,16.26689875,13.504562499999999L16.26689875,14.0391025C16.26689875,14.224562500000001,16.204718749999998,14.3740125,16.07926875,14.4885625C15.95271875,14.6031025,15.78471875,14.6609225,15.57089875,14.6609225ZM13.62907875,14.6118325L15.62871875,8.7765628L16.16871875,8.7765628L14.16907875,14.6118325L13.62907875,14.6118325Z" fill="#6A83FC" fill-opacity="1"/></g></g></svg>