<svg xmlns="http://www.w3.org/2000/svg" xmlns:xlink="http://www.w3.org/1999/xlink" fill="none" version="1.1" width="24" height="24" viewBox="0 0 24 24"><defs><clipPath id="master_svg0_609_799"><rect x="0" y="0" width="24" height="24" rx="0"/></clipPath></defs><g clip-path="url(#master_svg0_609_799)"><g><path d="M12,0.88909C5.86364,0.88909,0.88909,5.86364,0.88909,12C0.88909,18.1364,5.86364,23.1109,12,23.1109C18.1364,23.1109,23.1109,18.1364,23.1109,12C23.1109,5.86364,18.1364,0.88909,12,0.88909ZM0,12C0,5.37273,5.37273,0,12,0C18.6273,0,24,5.37273,24,12C24,18.6273,18.6273,24,12,24C5.37273,24,0,18.6273,0,12Z" fill="#6A83FC" fill-opacity="1"/></g><g style="opacity:0.30000001192092896;"><path d="M21.26295625,16.360524046875C19.57405625,19.947148046875,15.96585625,22.236158046875,12.00115625,22.236158046875C8.07568625,22.237148046875,4.49541625,19.993118046875,2.78515625,16.459797046875C3.9783262500000003,16.710938046875,5.22039625,16.577258046875,6.3327962499999995,16.077978046875C7.83383625,15.404670046875,9.55102625,15.404670046875,11.05206625,16.077978046875C12.55308625,16.751428046875,14.27035625,16.751428046875,15.77135625,16.077978046875C17.27235625,15.404670046875,18.98955625,15.404670046875,20.49065625,16.077978046875C20.74265625,16.191433046875,21.00115625,16.285251046875,21.26295625,16.360524046875L21.26295625,16.360524046875Z" fill="#6A83FC" fill-opacity="1"/></g><g><path d="M21.33830625,16.197649296875C19.68650625,19.872214296875,16.03110625,22.235824296875002,12.00013625,22.235834296874998C7.99594625,22.236454296875,4.35896625,19.902454296875,2.69140625,16.262013296875C2.92377025,16.332922296875,3.15286125,16.418012296875,3.37758825,16.519467296875C4.87860625,17.192914296875,6.59584625,17.192914296875,8.09686625,16.519467296875C9.597906250000001,15.846159296875,11.31509625,15.846159296875,12.81610625,16.519467296875C14.31710625,17.192914296875,16.03440625,17.192914296875,17.53540625,16.519467296875C18.72940625,15.983829796875,20.07020625,15.870340296875,21.33830625,16.197649296875L21.33830625,16.197649296875Z" fill="#6A83FC" fill-opacity="1"/></g><g><path d="M8.275390625,14.745903203125L8.275390625,13.990993203125L9.720850625,11.263723203125C9.784900625,11.155313203125,9.827840625,11.035753203125001,9.847390625,10.911363203125C9.864980625,10.712563203125,9.867530625,10.512723203125,9.855030625,10.313543203125C9.856640625,10.243513203125,9.843250625,10.173963203125,9.815750625,10.109543203125C9.790130625,10.052418203125,9.749400625,10.003381203125,9.697940625,9.967723203125C9.630870625,9.921531203125,9.550060625,9.899596203125,9.468850625,9.905542203125C9.348850625,9.905542203125,9.252847625,9.938270203125,9.178664625,10.006997203125C9.111027625,10.075724203125,9.077209625,10.174993203125,9.077209625,10.305903203125L9.077209625,10.761903203125L8.275390625,10.761903203125L8.275390625,10.321183203124999C8.27551547,10.000254203125,8.402575625,9.692403203125,8.628844625,9.464816203125C8.733572625,9.355724203125,8.859026625,9.268452203125,9.006299625,9.206271203125C9.152482625,9.137544103125,9.309570625,9.103725780125,9.477570625,9.103725780125C9.831590625,9.092916313125,10.169840624999999,9.250306203125,10.389570625000001,9.528089203125C10.483390625,9.658999203125,10.551030625,9.808453203125,10.593570625,9.975362203125C10.640480625,10.143363203125,10.664480625,10.321183203124999,10.664480625,10.509903203124999C10.664480625,10.646273203125,10.661210624999999,10.760813203125,10.656850625,10.855723203125C10.651390625,10.945183203125,10.640480625,11.031363203125,10.624120625,11.115363203125C10.607890625,11.201663203125,10.581910624999999,11.285843203125,10.546660625,11.366273203125001C10.509570625,11.450273203125,10.459390625000001,11.551723203125,10.397210625,11.672813203125L9.219028625,13.944093203125L10.664480625,13.944093203125L10.664480625,14.745913203125L8.275390625,14.745903203125ZM13.588120625,9.150632003125L13.588120625,9.905540203125L12.000840625,9.905540203125L12.000840625,11.414263203125C12.082300625,11.335503203125,12.178760624999999,11.273923203125,12.284480625,11.233173203125C12.405360625,11.179733203125,12.536330625,11.152943203125,12.668480625,11.154633203125C12.941210625,11.154633203125,13.161570625,11.238633203125,13.328480625000001,11.405543203125C13.501930625,11.569173203125,13.588120625,11.814633203125,13.588120625,12.145173203125001L13.588120625,13.590633203125C13.588120625,13.779353203125,13.554300625,13.947353203125001,13.485570625000001,14.093543203125C13.365950625,14.380693203125,13.133040625,14.605703203125,12.841930625,14.715353203125C12.549830625,14.819383203125,12.230770625,14.819383203125,11.938660625,14.715353203125C11.651360625,14.599363203125,11.420250625,14.376453203125,11.293940625,14.093543203125C11.228380625,13.934113203125001,11.196080625,13.762983203125,11.199030624999999,13.590633203125L11.199030624999999,13.354993203125L12.000850625,13.354993203125L12.000850625,13.558993203124999C12.000850625,13.695353203125,12.037940625000001,13.803363203125,12.109940625,13.881903203124999C12.189570625,13.954993203125,12.288850625,13.990993203125,12.408850625,13.990993203125C12.528850625,13.990993203125,12.621570625,13.954993203125,12.684850625,13.881903203124999C12.756920625,13.796623203125,12.793260625,13.686793203125,12.786300624999999,13.575353203125001L12.786300624999999,12.261903203125C12.786300624999999,12.151723203125,12.750300625000001,12.056813203125,12.677210625,11.978263203125C12.610400625,11.900123203125,12.511590625,11.856743203125,12.408850625,11.860453203125001C12.348980625,11.858633203125,12.289650625,11.872153203125,12.236480625,11.899723203125C12.192690625000001,11.918393203125,12.152740625,11.945033203125,12.118660625,11.978263203125C12.088660625,12.007573203125,12.064580625,12.042393203125,12.047750624999999,12.080813203125L12.000850625,12.168083203125L11.293940625,12.168083203125L11.293940625,9.149539603125L13.588120625,9.149539603125L13.588120625,9.150632003125ZM14.593940625,10.384453203125C14.644280625,10.385593203125,14.692850625,10.365853203124999,14.728120624999999,10.329903203125C14.768970625,10.290983203125,14.791870625,10.236873203125,14.791390625,10.180453203125L14.791390625,9.778996203125C14.792990625,9.724557203125,14.769690624999999,9.672355203125,14.728120624999999,9.637178203125C14.695110625,9.597214203125,14.645770625,9.574352203125,14.593940625,9.574997203125C14.539980625,9.575705203125,14.488690625,9.598589203125,14.452120625,9.638271203125C14.415100625000001,9.675959203125,14.395350624999999,9.727306203125,14.397570625,9.780088203125L14.397570625,10.180453203125C14.397570625,10.237183203125,14.416120625,10.287363203125,14.452120625,10.329903203125C14.495760624999999,10.365903203125,14.541570625,10.384453203125,14.593940625,10.384453203125ZM14.593940625,10.855723203125C14.416670625,10.864973203125,14.242580625,10.806033203125,14.107390625,10.690993203125C13.986400625,10.580663203125,13.920150625,10.422623203125,13.926300625,10.258993203125L13.926300625,9.748448203125C13.916990625,9.572446203125,13.982810624999999,9.400760203125,14.107390625,9.276084203125C14.240680625,9.156295803125,14.416070625,9.094302093125,14.595030625,9.103719538125C14.773620625,9.094597553125,14.948550625,9.156570403125,15.081570625000001,9.276084203125C15.206150625,9.400758203125,15.271970625,9.572444203125,15.262660624999999,9.748448203125L15.262660624999999,10.258993203125C15.268810625,10.422633203125,15.202570625,10.580663203125,15.081570625000001,10.690993203125C14.961570625,10.800083203125,14.797940624999999,10.855723203125,14.593940625,10.855723203125ZM15.687030625,14.117543203124999C15.687030625,14.175353203124999,15.705570625,14.224443203125,15.741570625,14.266993203125C15.784120625,14.302993203125,15.831030625,14.321533203125,15.883390625,14.321533203125C15.933360624999999,14.322373203125,15.981480625,14.302653203125,16.016480625,14.266993203125C16.057340625000002,14.228063203125,16.080240625000002,14.173963203125,16.079750625,14.117543203124999L16.079750625,13.716083203124999C16.081350625,13.661643203125,16.058060625,13.609443203125,16.016480625,13.574263203125C15.983710625,13.534603203125,15.934840625,13.511773203125,15.883390625,13.512083203125C15.829430625,13.512793203125,15.778140624999999,13.535673203125,15.741570625,13.575363203125C15.704660624999999,13.613123203125,15.684940625,13.664413203125001,15.687030625,13.717173203125L15.687030625,14.117543203124999ZM15.883390625,14.793903203125C15.705610625,14.803133203125,15.531060625,14.743783203125,15.395750625,14.628083203125C15.275290625,14.517463203125,15.209480625000001,14.359513203125001,15.215750625,14.196083203125L15.215750625,13.684453203124999C15.206470625,13.508983203125,15.271860625,13.337783203125,15.395750625,13.213173203124999C15.529050625,13.093393203125,15.704430625,13.031393203124999,15.883390625,13.040813203125C16.062350625,13.031393203124999,16.237740625,13.093393203125,16.371030625,13.213173203124999C16.494920625,13.337783203125,16.560310625,13.508983203125,16.551030625,13.684453203124999L16.551030625,14.196083203125C16.557030625,14.359693203125001,16.490810625,14.517663203125,16.369940624999998,14.628083203125C16.249940625,14.737173203125,16.087390625,14.792813203125,15.883390625,14.792813203125L15.883390625,14.793903203125ZM14.021210625,14.745903203125L15.937940625,9.150629903125L16.457210625000002,9.150629903125L14.539390625,14.745903203125L14.021210625,14.745903203125Z" fill="#6A83FC" fill-opacity="1"/></g></g></svg>