<?xml version="1.0" encoding="utf-8"?>
<!-- Generator: Adobe Illustrator 16.0.0, SVG Export Plug-In . SVG Version: 6.00 Build 0)  -->
<!DOCTYPE svg PUBLIC "-//W3C//DTD SVG 1.1//EN" "http://www.w3.org/Graphics/SVG/1.1/DTD/svg11.dtd">
<svg version="1.1" id="图层_1" xmlns="http://www.w3.org/2000/svg" xmlns:xlink="http://www.w3.org/1999/xlink" x="0px" y="0px"
	 width="24px" height="24px" viewBox="0 0 24 24" enable-background="new 0 0 24 24" xml:space="preserve">
<path fill="#6A83FC" d="M21.097,17.773l-9.241,5.133C11.74,22.969,11.607,23,11.475,23c-0.134,0-0.265-0.031-0.381-0.094
	l-9.235-5.135c-0.236-0.131-0.381-0.373-0.381-0.637V6.87c0-0.263,0.145-0.506,0.381-0.637l9.235-5.133
	c0.235-0.131,0.526-0.131,0.762,0l9.241,5.133c0.236,0.131,0.383,0.374,0.381,0.637v10.265
	C21.479,17.398,21.333,17.641,21.097,17.773z M19.954,7.295l-8.479-4.714L3,7.295v9.414l8.474,4.715l8.479-4.715V7.295L19.954,7.295
	z M11.108,19.98L4.16,16.313c-0.301-0.156-0.457-0.484-0.381-0.805l1.524-6.601c0.046-0.175,0.153-0.331,0.304-0.439l5.433-3.667
	c0.263-0.178,0.614-0.178,0.877,0l5.425,3.667c0.155,0.105,0.264,0.262,0.306,0.439l1.521,6.601
	c0.076,0.316-0.075,0.646-0.373,0.805L11.84,19.98c-0.113,0.057-0.238,0.088-0.366,0.088S11.221,20.037,11.108,19.98z
	 M17.569,15.287l-1.318-5.778l-4.776-3.211L6.728,9.509l-1.35,5.778l6.096,3.211L17.569,15.287z"/>
</svg>
