<svg xmlns="http://www.w3.org/2000/svg" xmlns:xlink="http://www.w3.org/1999/xlink" fill="none" version="1.1" width="24" height="24" viewBox="0 0 24 24"><defs><clipPath id="master_svg0_769_0106"><rect x="0" y="0" width="24" height="24" rx="0"/></clipPath></defs><g clip-path="url(#master_svg0_769_0106)"><g><path d="M11.99399582473755,20.066950156402587C11.86599582473755,20.066950156402587,11.74099582473755,20.03695015640259,11.62799582473755,19.97795015640259L4.679999824737549,16.313950156402587C4.379000224737549,16.15595015640259,4.222000124737549,15.826950156402589,4.299000024737548,15.504950156402588L5.821995824737549,8.906000156402587C5.867995824737549,8.730000156402589,5.975995824737549,8.574000156402589,6.1269958247375484,8.466000156402588L11.559995824737548,4.800000156402588C11.82299582473755,4.623000156402588,12.173995824737549,4.623000156402588,12.436995824737549,4.800000156402588L17.86097582473755,8.467000156402587C18.014975824737547,8.571000156402588,18.124975824737547,8.729000156402588,18.16797582473755,8.907000156402589L19.689975824737548,15.506050156402589C19.76597582473755,15.825050156402588,19.61497582473755,16.15405015640259,19.31597582473755,16.315050156402588L12.359995824737549,19.979050156402586C12.247995824737549,20.037050156402586,12.12199582473755,20.066950156402587,11.99399582473755,20.066950156402587Z" fill="#6A83FC" fill-opacity="0.6000000238418579"/></g><g><path d="M11.993996091842652,23.000000155448912C11.860996091842651,23.000000155448912,11.728996091842651,22.969000155448914,11.612996091842652,22.904000155448912L2.3780010918426515,17.773000155448912C2.1420010918426513,17.640000155448913,1.9970012608426513,17.397000155448914,1.9980012774426514,17.134000155448913L1.9980012774426514,6.868000155448914C1.9970000688426515,6.605000155448914,2.142000091842651,6.361000155448914,2.3780000918426514,6.230000155448914L11.612996091842652,1.0970001554489135C11.847996091842651,0.9670001554489136,12.138996091842651,0.9670001554489136,12.375996091842651,1.0970001554489135L21.61699609184265,6.230000155448914C21.853996091842653,6.361000155448914,22.00099609184265,6.605000155448914,21.998996091842653,6.868000155448914L21.998996091842653,17.135000155448914C22.00099609184265,17.398000155448912,21.853996091842653,17.641000155448914,21.61699609184265,17.774000155448913L12.375996091842651,22.905000155448914C12.25899609184265,22.969000155448914,12.126996091842651,23.000000155448912,11.993996091842652,23.000000155448912ZM3.5219960918426514,16.708000155448914L11.993996091842652,21.424000155448912L20.472996091842653,16.708000155448914L20.472996091842653,7.2930001554489134L11.993996091842652,2.5780001554489136L3.5219960918426514,7.2930001554489134L3.5219960918426514,16.708000155448914Z" fill="#6A83FC" fill-opacity="1"/></g></g></svg>