<svg xmlns="http://www.w3.org/2000/svg" xmlns:xlink="http://www.w3.org/1999/xlink" fill="none" version="1.1" width="24" height="24" viewBox="0 0 24 24"><defs><clipPath id="master_svg0_824_900"><rect x="0" y="0" width="24" height="24" rx="0"/></clipPath></defs><g clip-path="url(#master_svg0_824_900)"><g><g><path d="M22.885546875,22.022048828125L1.171545875,22.022048828125C0.8341008750000001,22.022048828125,0.560546875,21.748494828125,0.560546875,21.411050828125C0.560546875,21.073604828125,0.8340998749999999,20.800050735475,1.171545875,20.800048828125L22.885546875,20.800048828125C23.222946875,20.800050735475,23.496546875,21.073604828125,23.496546875,21.411050828125C23.496546875,21.748494828125,23.222946875,22.022048828125,22.885546875,22.022048828125Z" fill="#6A83FC" fill-opacity="0.699999988079071"/></g><g><path d="M13.9187890625,8.944125312499999C13.9181890625,10.679235312500001,12.5108890625,12.0852253125,10.7757890625,12.0841153125C9.040669062500001,12.0852253125,7.6333390625,10.679235312500001,7.6327890625,8.944125312499999C7.6333390625,7.2090053125,9.040669062500001,5.8030153124999995,10.7757890625,5.8041153125000005C12.5108890625,5.8030153124999995,13.9181890625,7.2090053125,13.9187890625,8.944125312499999ZM4.4897890625,17.1850953125C4.4895090625,17.8356953125,3.9618790625,18.3628953125,3.3112890625,18.362595312499998C2.6606970625,18.362295312500002,2.1335124965,17.8346953125,2.1337890625,17.1840953125C2.1340665815,16.5334953125,2.6616980625,16.0063953125,3.3122890625,16.0065953125C3.9628790625,16.0068953125,4.4900690625,16.5344953125,4.4897890625,17.1850953125ZM20.9897890625,4.6271153125C20.9894890625,5.2777153125,20.4618890625,5.804895312499999,19.8112890625,5.8046253125C19.1606890625,5.804345312500001,18.6334890625,5.2767153125,18.6337890625,4.6261153125C18.6348890625,3.9761443124999998,19.1622890625,3.4499197005,19.8122890625,3.4501953125C20.4622890625,3.4504709245,20.9891890625,3.9771443125,20.9897890625,4.6271153125Z" fill="#6A83FC" fill-opacity="1"/></g><g><path d="M17.846078125,6.590078125C17.846148125,7.458078125,17.142078125,8.161538125,16.274078125,8.160708125C15.406082125,8.159878125,14.703355785,7.455078125,14.7050819397,6.587078125C14.705635071,5.719717125,15.409220125000001,5.017028809,16.276578125,5.01758098602C17.143948125,5.018133163,17.846638125,5.721719125,17.846078125,6.590078125L17.846078125,6.590078125Z" fill="#6A83FC" fill-opacity="0.699999988079071"/></g><g><path d="M7.6320546875,12.475962890625C7.6320546875,13.558962890625,6.752054687499999,14.437962890625,5.6670546875,14.437962890625C4.5830486875,14.436852890625,3.7051353455,13.557302890625,3.706055641174,12.473292890625C3.7069759365,11.389289890625,4.5863846875,10.511224746625,5.6703846875,10.511962890625C6.7543946875,10.512701034625,7.632604687500001,11.391957890625,7.6320546875,12.475962890625Z" fill="#6A83FC" fill-opacity="0.30000001192092896"/></g><g><path d="M19.928929687500002,9.962046875C19.928929687500002,11.046046875,19.0489296875,11.924046875,17.9639296875,11.924046875C16.8799266875,11.922936875,16.0020103455,11.043386875,16.0029296875,9.959376875C16.0038490295,8.875377875,16.8832546875,7.997312546,17.9672596875,7.998046875C19.0512696875,7.998783112,19.9294796875,8.878039875,19.928929687500002,9.962046875Z" fill="#6A83FC" fill-opacity="1"/></g><g><path d="M16.274546875,14.4380078125Q16.274546875,14.5537278125,16.263196875,14.6688878125Q16.251846875,14.7840578125,16.229256875,14.8975578125Q16.206666875,15.0110478125,16.173056875,15.1217878125Q16.139446875,15.232527812499999,16.095126875,15.3394378125Q16.050816875,15.4463478125,15.996236875000001,15.548407812499999Q15.941646875,15.6504678125,15.877316875,15.7466878125Q15.812986875,15.8428978125,15.739536874999999,15.9323578125Q15.666076875,16.0218078125,15.584196875,16.1036378125Q15.502316875,16.1854678125,15.412816875,16.2588778125Q15.323306875,16.3322878125,15.227026875,16.3965778125Q15.130746875,16.4608678125,15.028626875,16.5154178125Q14.926506875,16.5699678125,14.819526875000001,16.6142578125Q14.712556875,16.6585378125,14.601746875,16.6921278125Q14.490936875,16.7257278125,14.377376875,16.7482978125Q14.263806875,16.7708778125,14.148576875,16.7822178125Q14.033336875,16.793557812499998,13.917546875,16.793557812499998Q13.801756875,16.793557812499998,13.686516875,16.7822178125Q13.571286875,16.7708778125,13.457716875,16.7482978125Q13.344156875,16.7257278125,13.233346875,16.6921278125Q13.122536875,16.6585378125,13.015566875,16.6142578125Q12.908586875,16.5699678125,12.806466875,16.5154178125Q12.704346875,16.4608678125,12.608066875,16.3965778125Q12.511790874999999,16.3322878125,12.422281875,16.2588778125Q12.332773875,16.1854678125,12.250895875,16.1036378125Q12.169018875,16.0218078125,12.095560875,15.9323578125Q12.022103874999999,15.8428978125,11.957772875,15.7466878125Q11.893442875,15.6504678125,11.838858875,15.548407812499999Q11.784274875,15.4463478125,11.739962875,15.3394378125Q11.695650875,15.232527812499999,11.662038875,15.1217878125Q11.628425875,15.0110478125,11.605835975,14.8975578125Q11.583246075,14.7840578125,11.571896475,14.6688878125Q11.560546875,14.5537278125,11.560546875,14.4380078125Q11.560546875,14.3222878125,11.571896475,14.2071178125Q11.583246075,14.0919578125,11.605835975,13.9784578125Q11.628425875,13.8649678125,11.662038875,13.7542278125Q11.695650875,13.6434878125,11.739962875,13.5365778125Q11.784274875,13.4296678125,11.838858875,13.3276078125Q11.893442875,13.2255478125,11.957772875,13.1293278125Q12.022103874999999,13.0331128125,12.095560875,12.9436598125Q12.169018875,12.8542058125,12.250895875,12.7723788125Q12.332773875,12.6905518125,12.422281875,12.6171388125Q12.511790874999999,12.5437268125,12.608066875,12.4794348125Q12.704346875,12.4151438125,12.806466875,12.3605938125Q12.908586875,12.3060428125,13.015566875,12.2617588125Q13.122536875,12.2174738125,13.233346875,12.1838818125Q13.344156875,12.1502901125,13.457716875,12.1277141125Q13.571286875,12.1051380125,13.686516875,12.0937954125Q13.801756875,12.0824527745,13.917546875,12.0824527745Q14.033336875,12.0824527745,14.148576875,12.0937954125Q14.263806875,12.1051380125,14.377376875,12.1277141125Q14.490936875,12.1502901125,14.601746875,12.1838818125Q14.712556875,12.2174738125,14.819526875000001,12.2617588125Q14.926506875,12.3060428125,15.028626875,12.3605938125Q15.130746875,12.4151438125,15.227026875,12.4794348125Q15.323306875,12.5437268125,15.412816875,12.6171388125Q15.502316875,12.6905518125,15.584196875,12.7723788125Q15.666076875,12.8542058125,15.739536874999999,12.9436598125Q15.812986875,13.0331128125,15.877316875,13.1293278125Q15.941646875,13.2255478125,15.996236875000001,13.3276078125Q16.050816875,13.4296678125,16.095126875,13.5365778125Q16.139446875,13.6434878125,16.173056875,13.7542278125Q16.206666875,13.8649678125,16.229256875,13.9784578125Q16.251846875,14.0919578125,16.263196875,14.2071178125Q16.274546875,14.3222878125,16.274546875,14.4380078125Z" fill="#6A83FC" fill-opacity="0.30000001192092896"/></g><g><path d="M9.9886796875,16.008045859375C9.9887996875,16.876155859375,9.2847896875,17.579805859375,8.4166796875,17.579255859375C7.5485666875,17.578705859375,6.8454570775,16.874155859375,6.84668159485,16.006045859375C6.8479042075,15.138877859375,7.5515156875,14.436704635375,8.4186796875,14.437255859375C9.2859596875,14.437925338375,9.9886796875,15.140994859375,9.9886796875,16.008045859375Z" fill="#6A83FC" fill-opacity="0.699999988079071"/></g></g></g></svg>