<svg xmlns="http://www.w3.org/2000/svg" xmlns:xlink="http://www.w3.org/1999/xlink" fill="none" version="1.1" width="24" height="24" viewBox="0 0 24 24"><defs><clipPath id="master_svg0_906_926"><rect x="0" y="0" width="24" height="24" rx="0"/></clipPath></defs><g clip-path="url(#master_svg0_906_926)"><g><g><path d="M13.2414,15.656359696044921C13.1115,15.657909696044921,12.9834,15.626589696044922,12.869,15.565319696044922C12.4632,15.358779696044921,12.3005,14.863239696044921,12.5048,14.456359696044922L13.9736,11.518719696044922L12.5045,8.580389696044922C12.3378,8.180226696044922,12.5082,7.719285696044922,12.8951,7.523694696044922C13.2819,7.328105536044922,13.7541,7.464144696044922,13.9776,7.835559696044922L14.8964,9.673199696044922L15.8152,7.835665696044922C16.0001,7.3916088960449216,16.5233,7.198214696044922,16.9526,7.415260096044922C17.3819,7.632305696044922,17.5363,8.168335696044922,17.2883,8.580489696044921L15.8192,11.518719696044922L17.2879,14.456249696044921C17.4987,14.85227969604492,17.3556,15.344149696044921,16.9652,15.565219696044922C16.8385,15.633669696044922,16.6951,15.665209696044922,16.5514,15.656249696044922C16.2397,15.655309696044922,15.9551,15.479379696044921,15.8148,15.201079696044921L14.8964,13.364229696044923L13.9779,15.201179696044921C13.8377,15.479479696044923,13.553,15.655409696044922,13.2414,15.656359696044921ZM4.96552,9.035559696044922L3.72414,9.035559696044922L3.72414,14.828659696044923C3.72414,15.285729696044921,3.35361,15.656249696044922,2.89655,15.656249696044922C2.43949,15.656249696044922,2.06897,15.285729696044921,2.06897,14.828659696044923L2.06897,9.035559696044922L0.827586,9.035559696044922C0.370523,9.035559696044922,0,8.665039696044921,0,8.207973696044922C0,7.750910696044922,0.370523,7.380387796044922,0.827586,7.380387796044922L4.96552,7.380387796044922C5.42258,7.380387796044922,5.7931,7.750910696044922,5.7931,8.207973696044922C5.7931,8.665039696044921,5.42258,9.035559696044922,4.96552,9.035559696044922ZM10.7586,15.656249696044922L7.44828,15.656249696044922C6.99121,15.656249696044922,6.62069,15.285729696044921,6.62069,14.828659696044923L6.62069,8.207973696044922C6.62069,7.750910696044922,6.99121,7.380387796044922,7.44828,7.380387796044922L10.7586,7.380387796044922C11.2157,7.380387796044922,11.5862,7.750910696044922,11.5862,8.207973696044922C11.5862,8.665039696044921,11.2157,9.035559696044922,10.7586,9.035559696044922L8.27586,9.035559696044922L8.27586,10.690839696044922L10.7586,10.690839696044922C11.2157,10.690839696044922,11.5862,11.061359696044923,11.5862,11.518419696044923C11.5862,11.97548969604492,11.2157,12.346009696044922,10.7586,12.346009696044922L8.27586,12.346009696044922L8.27586,14.001079696044922L10.7586,14.001079696044922C11.2157,14.001079696044922,11.5862,14.371599696044921,11.5862,14.828659696044923C11.5862,15.285729696044921,11.2157,15.656249696044922,10.7586,15.656249696044922ZM20.2759,9.035559696044922L19.0345,9.035559696044922C18.5774,9.035559696044922,18.2069,8.665039696044921,18.2069,8.207973696044922C18.2069,7.750910696044922,18.5774,7.380387796044922,19.0345,7.380387796044922L23.1724,7.380387796044922C23.6295,7.380387796044922,24,7.750910696044922,24,8.207973696044922C24,8.665039696044921,23.6295,9.035559696044922,23.1724,9.035559696044922L21.931,9.035559696044922L21.931,14.828659696044923C21.931,15.285729696044921,21.5605,15.656249696044922,21.1034,15.656249696044922C20.6464,15.656249696044922,20.2759,15.285729696044921,20.2759,14.828659696044923L20.2759,9.035559696044922Z" fill-rule="evenodd" fill="#6A83FC" fill-opacity="1" style="mix-blend-mode:passthrough"/></g><g><path d="M5.131032348022461,17.783068482910156L4.014012348022461,17.783068482910156L4.014012348022461,22.276862482910158C4.014012348022461,22.505392482910157,3.828752348022461,22.690652482910156,3.600212348022461,22.690652482910156C3.371682348022461,22.690652482910156,3.186422348022461,22.505392482910157,3.186422348022461,22.276862482910158L3.186422348022461,17.783068482910156L2.068965348022461,17.783068482910156C1.840434348022461,17.783068482910156,1.655172348022461,17.597807482910156,1.655172348022461,17.369275482910155C1.655172348022461,17.140744482910158,1.840434348022461,16.955482482910156,2.068965348022461,16.955482482910156L5.131032348022461,16.955482482910156C5.359562348022461,16.955482482910156,5.5448223480224605,17.140744482910158,5.5448223480224605,17.369275482910155C5.5448223480224605,17.597807482910156,5.359562348022461,17.783068482910156,5.131032348022461,17.783068482910156ZM9.426722348022462,22.690652482910156L6.943962348022461,22.690652482910156C6.715432348022461,22.690652482910156,6.530172348022461,22.505392482910157,6.530172348022461,22.276862482910158L6.530172348022461,17.369275482910155C6.530172348022461,17.140744482910158,6.715432348022461,16.955482482910156,6.943962348022461,16.955482482910156L9.426722348022462,16.955482482910156C9.655252348022461,16.955482482910156,9.840512348022461,17.140744482910158,9.840512348022461,17.369275482910155C9.840512348022461,17.597807482910156,9.655252348022461,17.783068482910156,9.426722348022462,17.783068482910156L7.390862348022461,17.783068482910156L7.390862348022461,19.413492482910158L9.426722348022462,19.413492482910158C9.655252348022461,19.413492482910158,9.840512348022461,19.598752482910157,9.840512348022461,19.827282482910157C9.840512348022461,20.055822482910155,9.655252348022461,20.241082482910155,9.426722348022462,20.241082482910155L7.390862348022461,20.241082482910155L7.390862348022461,21.863072482910155L9.426722348022462,21.863072482910155C9.655252348022461,21.863072482910155,9.840512348022461,22.048332482910155,9.840512348022461,22.276862482910158C9.840512348022461,22.505392482910157,9.655252348022461,22.690652482910156,9.426722348022462,22.690652482910156ZM18.62087234802246,17.783068482910156L17.50397234802246,17.783068482910156L17.50397234802246,22.276862482910158C17.50397234802246,22.505392482910157,17.31867234802246,22.690652482910156,17.090172348022463,22.690652482910156C16.86167234802246,22.690652482910156,16.67637234802246,22.505392482910157,16.67637234802246,22.276862482910158L16.67637234802246,17.783068482910156L15.558872348022462,17.783068482910156C15.330272348022461,17.783068482910156,15.145072348022461,17.597807482910156,15.145072348022461,17.369275482910155C15.145072348022461,17.140744482910158,15.330272348022461,16.955482482910156,15.558872348022462,16.955482482910156L18.62087234802246,16.955482482910156C18.84947234802246,16.955482482910156,19.03467234802246,17.140744482910158,19.03467234802246,17.369275482910155C19.03467234802246,17.597807482910156,18.84947234802246,17.783068482910156,18.62087234802246,17.783068482910156ZM11.08189234802246,22.649352482910157C11.13936234802246,22.674732482910155,11.201182348022462,22.688782482910156,11.263962348022462,22.690732482910157C11.419202348022461,22.687932482910156,11.559812348022461,22.598452482910155,11.62810234802246,22.459012482910154L12.488272348022461,20.761552482910155L13.348472348022462,22.459012482910154C13.41367234802246,22.601212482910157,13.55627234802246,22.691922482910158,13.71267234802246,22.690732482910157C13.78097234802246,22.691002482910157,13.848672348022461,22.676902482910158,13.911272348022461,22.649352482910157C14.11057234802246,22.543022482910157,14.190772348022461,22.298642482910157,14.093372348022461,22.094872482910155L12.953972348022461,19.842682482910156L14.110872348022461,17.559700482910156C14.213072348022461,17.356258482910157,14.13167234802246,17.108491482910157,13.928772348022461,17.005216682910156C13.725772348022462,16.897974782910158,13.474272348022462,16.980557382910156,13.37427234802246,17.187285482910156L12.492472348022462,18.930442482910156L11.61057234802246,17.187286482910157C11.510632348022462,16.980557382910156,11.259132348022462,16.897974782910158,11.05609234802246,17.005217682910157C10.850082348022461,17.105475482910155,10.76474234802246,17.354050482910157,10.865742348022462,17.559700482910156L12.026772348022462,19.850852482910156L10.891552348022461,22.094872482910155C10.795352348022462,22.300802482910157,10.879502348022461,22.545932482910157,11.08189234802246,22.649352482910157Z" fill-rule="evenodd" fill="#6A83FC" fill-opacity="0.6000000238418579" style="mix-blend-mode:passthrough"/></g><g><path d="M16.96551765197754,6.13908C16.90258765197754,6.13826,16.840547651977538,6.12416,16.78344765197754,6.0977C16.58104765197754,5.99428,16.49689765197754,5.74915,16.59310765197754,5.54322L17.32947765197754,4.07047L16.59270765197754,2.596923C16.492387651977538,2.391283,16.57765765197754,2.143249,16.78320765197754,2.0427554C16.98876765197754,1.9422616,17.23686765197754,2.0273149,17.337537651977538,2.232786L17.79292765197754,3.14357L18.24827765197754,2.2328770000000002C18.348717651977537,2.0269909,18.597107651977538,1.9416034,18.802917651977538,2.0422174C19.00871765197754,2.142831,19.09389765197754,2.391299,18.99310765197754,2.597015L18.256377651977537,4.07047L18.99270765197754,5.54313C19.08890765197754,5.74906,19.004767651977538,5.99419,18.80236765197754,6.09761C18.74526765197754,6.12407,18.68322765197754,6.13817,18.620297651977538,6.13899C18.46206765197754,6.13931,18.31750765197754,6.04936,18.24787765197754,5.9072700000000005L17.79292765197754,4.9973600000000005L17.337927651977537,5.907360000000001C17.268307651977537,6.04945,17.12374765197754,6.1394,16.96551765197754,6.13908ZM12.827587651977538,2.828664L12.206897651977538,2.828664L12.206897651977538,5.72522C12.206897651977538,5.953749999999999,12.021637651977539,6.13901,11.79310765197754,6.13901C11.564567651977539,6.13901,11.37930765197754,5.953749999999999,11.37930765197754,5.72522L11.37930765197754,2.828664L10.75862065197754,2.828664C10.53008865197754,2.828664,10.344827651977539,2.643402,10.344827651977539,2.4148709999999998C10.344827651977539,2.186339,10.53008865197754,2.00107747,10.75862065197754,2.00107747L12.827587651977538,2.00107747C13.056117651977539,2.00107747,13.241377651977539,2.186339,13.241377651977539,2.4148709999999998C13.241377651977539,2.643402,13.056117651977539,2.828664,12.827587651977538,2.828664ZM15.72413765197754,6.13901L14.06896765197754,6.13901C13.840437651977538,6.13901,13.65516765197754,5.953749999999999,13.65516765197754,5.72522L13.65516765197754,2.4148709999999998C13.65516765197754,2.186339,13.840437651977538,2.00107747,14.06896765197754,2.00107747L15.72413765197754,2.00107747C15.952667651977539,2.00107747,16.137927651977538,2.186339,16.137927651977538,2.4148709999999998C16.137927651977538,2.643402,15.952667651977539,2.828664,15.72413765197754,2.828664L14.48275765197754,2.828664L14.48275765197754,3.65633L15.72413765197754,3.65633C15.952667651977539,3.65633,16.137927651977538,3.84159,16.137927651977538,4.07012C16.137927651977538,4.29865,15.952667651977539,4.48391,15.72413765197754,4.48391L14.48275765197754,4.48391L14.48275765197754,5.31142L15.72413765197754,5.31142C15.952667651977539,5.31142,16.137927651977538,5.49668,16.137927651977538,5.72522C16.137927651977538,5.953749999999999,15.952667651977539,6.13901,15.72413765197754,6.13901ZM20.48272765197754,2.828664L19.86206765197754,2.828664C19.63353765197754,2.828664,19.44827765197754,2.643402,19.44827765197754,2.4148709999999998C19.44827765197754,2.186339,19.63353765197754,2.00107747,19.86206765197754,2.00107747L21.931027651977537,2.00107747C22.15952765197754,2.00107747,22.34482765197754,2.186339,22.34482765197754,2.4148709999999998C22.34482765197754,2.643402,22.15952765197754,2.828664,21.931027651977537,2.828664L21.310327651977538,2.828664L21.310327651977538,5.72522C21.310327651977538,5.953749999999999,21.12512765197754,6.13901,20.89652765197754,6.13901C20.66802765197754,6.13901,20.48272765197754,5.953749999999999,20.48272765197754,5.72522L20.48272765197754,2.828664Z" fill-rule="evenodd" fill="#6A83FC" fill-opacity="0.6000000238418579" style="mix-blend-mode:passthrough"/></g></g></g></svg>