<svg xmlns="http://www.w3.org/2000/svg" xmlns:xlink="http://www.w3.org/1999/xlink" fill="none" version="1.1" width="36" height="36" viewBox="0 0 36 36"><g style="mix-blend-mode:passthrough"><g style="mix-blend-mode:passthrough"><g><path d="M31.5369,29.0884L32.4963,32.148399999999995L29.0007,30.3115C27.7545,30.6637,26.4714,30.8691,25.1775,30.9235C19.1133,30.9235,14.3388,26.9482,14.3388,22.0513C14.3388,17.154400000000003,19.1088,13.1755,25.1775,13.1755C30.9033,13.1719,36,17.158,36,22.0477C36,24.8044,34.0938,27.247,31.5369,29.0884ZM21.663,18.0706C20.9934,18.1053,20.4507,18.6261,20.3886,19.2937C20.447,19.9631,20.9918,20.486,21.663,20.5168C22.4392,20.6128,23.1488,20.0683,23.2569,19.2937C23.1447,18.5215,22.4379,17.979100000000003,21.663,18.0706ZM28.6722,18.0706C28.0042,18.106099999999998,27.4641,18.6274,27.405,19.2937C27.4611,19.961399999999998,28.0029,20.4844,28.6722,20.5168C29.4471,20.6083,30.1539,20.0659,30.2661,19.2937C30.1513,18.523400000000002,29.4469,17.982599999999998,28.6731,18.0706L28.6722,18.0706ZM13.5378,22.1944C13.5411,23.0633,13.6736,23.9268,13.9311,24.7567C13.5378,24.7864,13.1409,24.8053,12.7413,24.8053C11.2367,24.7493,9.74134,24.544,8.2773,24.1924L3.8241,26.3353L5.0976,22.657C1.908,20.5168,0,17.7583,0,14.4013C0,8.581900000000001,5.7366,4,12.7413,4C19.0062,4,24.4953,7.6612,25.5978,12.5869C25.1904,12.54152,24.781,12.51749,24.3711,12.5149C18.3168,12.5149,13.5378,16.851100000000002,13.5378,22.1944ZM8.6013,9.199300000000001C7.65404,9.10937,6.80572,9.7858,6.6825,10.7293C6.80921,11.670829999999999,7.65519,12.34539,8.6013,12.2593C9.48262,12.32845,10.2267,11.61263,10.1916,10.7293C10.231,9.84422,9.4842,9.125720000000001,8.6013,9.199300000000001ZM17.5194,9.199300000000001C16.5735,9.109580000000001,15.727,9.78674,15.6069,10.7293C15.7305,11.669889999999999,16.5746,12.34516,17.5194,12.2593C18.4018,12.33017,19.1476,11.613800000000001,19.1124,10.7293C19.152,9.84304,18.4033,9.12399,17.5194,9.199300000000001Z" fill="#2AAE67" fill-opacity="1"/></g></g></g></svg>